<?xml version="1.0" encoding="UTF-8" standalone="no"?>
<!-- Generator: Adobe Adobe Illustrator 24.2.0, SVG Export Plug-In . SVG Version: 6.00 Build 0)  -->

<svg
   version="1.1"
   id="Layer_2"
   x="0px"
   y="0px"
   width="1500"
   height="250"
   viewBox="0 0 1500 250"
   xml:space="preserve"
   sodipodi:docname="01_The wind on my lips.svg"
   inkscape:version="1.3.2 (091e20e, 2023-11-25)"
   xmlns:inkscape="http://www.inkscape.org/namespaces/inkscape"
   xmlns:sodipodi="http://sodipodi.sourceforge.net/DTD/sodipodi-0.dtd"
   xmlns="http://www.w3.org/2000/svg"
   xmlns:svg="http://www.w3.org/2000/svg"><defs
   id="defs6" /><sodipodi:namedview
   id="namedview6"
   pagecolor="#ffffff"
   bordercolor="#000000"
   borderopacity="0.25"
   inkscape:showpageshadow="2"
   inkscape:pageopacity="0.0"
   inkscape:pagecheckerboard="0"
   inkscape:deskcolor="#d1d1d1"
   inkscape:zoom="0.83353848"
   inkscape:cx="650.83978"
   inkscape:cy="103.1746"
   inkscape:window-width="1680"
   inkscape:window-height="997"
   inkscape:window-x="0"
   inkscape:window-y="25"
   inkscape:window-maximized="0"
   inkscape:current-layer="Layer_2"
   showguides="true"><sodipodi:guide
     position="599.61563,311.66548"
     orientation="1,0"
     id="guide1"
     inkscape:locked="false" /><sodipodi:guide
     position="332.20462,99.692697"
     orientation="0,-1"
     id="guide2"
     inkscape:locked="false" /></sodipodi:namedview>
<style
   type="text/css"
   id="style1">
	.st0{fill:none;stroke:#000000;stroke-miterlimit:10;}
</style>





<path
   class="st0"
   d="M 24.074652,54.032955 C 59.966365,39.601979 97.065304,28.179779 134.8607,19.92422 c 22.63083,-4.940334 47.28607,-8.543434 68.16176,1.513674"
   id="path1"
   style="stroke:#00ff00;stroke-width:0.928631;stroke-opacity:1" /><path
   class="st0"
   d="m 123.04848,17.927657 c -4.7755,12.668892 -8.87015,25.565125 -12.96449,38.46165 -4.09435,12.896524 -8.18841,25.793337 -12.962746,38.463397 -4.77434,12.670046 -10.22896,25.113346 -15.68388,37.556346 -5.45491,12.443 -10.91011,24.88571 -15.68561,37.55461 0.0766,-0.34127 0.15265,-0.68313 0.22839,-1.02527 0.0757,-0.34214 0.15119,-0.68458 0.22664,-1.02701 0.0755,-0.34243 0.15091,-0.68487 0.22665,-1.02701 0.0757,-0.34215 0.15177,-0.684 0.22838,-1.02528"
   id="path2"
   style="stroke:#00ff00;stroke-width:0.928631;stroke-opacity:1"
   inkscape:label="path2"
   sodipodi:nodetypes="cssscsssc" /><path
   class="st0"
   d="m 136.62511,34.494492 c -23.1137,39.513386 -39.531946,82.927038 -48.353976,127.845088 9.52779,-16.39969 19.055576,-32.79936 28.583356,-49.20833 2.56304,-4.41101 7.43836,-9.5185 11.81222,-6.88119 2.21016,1.32796 2.99021,4.17886 3.04593,6.76047 0.11143,5.53465 -2.21015,10.78144 -4.3553,15.87964 -2.14514,5.09821 -4.19741,10.52142 -3.53809,16.00965 0.65933,5.48823 4.98677,10.93932 10.52142,10.91146 4.60603,-0.0186 8.33914,-3.60311 11.38505,-7.06691 6.45402,-7.33621 12.23941,-15.25746 17.2726,-23.63374 1.7737,-2.95306 3.38952,-6.94619 1.17009,-9.57421 -3.1295,-3.69597 -8.97989,-0.0465 -12.23011,3.53809 -3.51954,3.88169 -7.12263,7.89338 -8.97061,12.80587 -1.8387,4.91246 -1.54154,10.99502 2.12657,14.7467 6.19398,6.33329 16.74327,2.60946 24.79454,-1.0865 30.96066,-14.18953 64.67937,-22.34293 98.70453,-23.8659"
   id="path3"
   style="stroke:#00ff00;stroke-width:0.928631;stroke-opacity:1" /><path
   class="st0"
   d="m 267.69255,100.72469 c -9.27706,18.8327 -13.11232,40.30273 -10.92074,61.17842 9.49065,-14.09666 18.0898,-28.79694 25.72317,-43.9894 -1.2258,7.67052 -2.4516,15.35032 -3.67739,23.02085 -0.58504,3.69595 -0.66862,8.44128 2.70232,10.06639 3.66811,1.7644 7.51265,-1.95941 9.81567,-5.31179 9.69493,-14.10595 17.97836,-29.18697 24.67381,-44.93661"
   id="path4"
   style="stroke:#00ff00;stroke-width:0.928631;stroke-opacity:1" /><path
   class="st0"
   d="m 332.33478,112.35119 c -8.96131,14.19882 -12.40655,31.77786 -9.46278,48.30756 22.32437,-19.19487 42.58716,-40.78561 60.32407,-64.280056 -15.87035,15.814626 -27.74759,35.613106 -34.21088,57.064566 13.47448,-16.44611 28.8991,-31.29497 45.83739,-44.13798 -3.64954,13.22375 -7.28978,26.4475 -10.93932,39.67125 12.06296,-10.93003 24.12592,-21.86005 36.18888,-32.79008 3.27808,-2.97162 6.7326,-6.03612 10.99502,-7.2062 4.27173,-1.17008 9.5928,0.24145 11.43149,4.26243 -13.36304,2.21015 -25.93675,8.93346 -35.19523,18.82342 -3.37094,3.59381 -6.454,8.72915 -4.34601,13.1866 1.81084,3.81669 6.88118,5.14464 10.95788,4.021 4.07672,-1.12365 7.35479,-4.08599 10.40071,-7.02048 26.29892,-25.34243 47.27677,-56.173096 61.1877,-89.928952 -20.07706,14.486695 -35.4831,35.353116 -43.40435,58.810412 -3.54739,10.50285 -4.54103,24.36737 4.72674,30.44063 6.06398,3.97456 14.02238,2.74876 21.13572,1.34653 22.79797,-4.49459 45.53094,-9.30492 68.18961,-14.44027"
   id="path5"
   style="stroke:#00ff00;stroke-width:0.928631;stroke-opacity:1" /><path
   class="st0"
   d="m 337.73944,81.938414 c -3.90028,2.84162 -6.68618,7.16907 -7.67053,11.88653 4.04885,-3.1295 7.11334,-7.52195 8.64558,-12.40657 -3.77953,1.23509 -6.94618,4.216 -8.42271,7.91198 5.02391,-0.009 9.9271,-3.04593 12.16511,-7.54981 -3.70524,1.04007 -6.61187,4.48531 -6.99261,8.32057 2.34015,-1.16079 4.02099,-3.55667 4.30886,-6.15685 -1.39295,0.90078 -2.01514,2.81376 -1.42081,4.3553"
   id="path6"
   style="stroke:#00ff00;stroke-width:0.928631;stroke-opacity:1" />
<style
   type="text/css"
   id="style1-3">
	.st0{fill:none;stroke:#000000;stroke-miterlimit:10;stroke-dasharray:0,0,0,0,0,0;}
	.st1{fill:none;stroke:#000000;stroke-miterlimit:10;}
</style><path
   class="st0"
   d="m 693.49243,115.69784 c -7.55723,13.35206 -11.03271,28.98116 -9.84132,44.27892 16.16488,-14.69854 26.57017,-35.56553 28.59342,-57.31375 0.28199,-3.03839 0.28904,-6.43633 -1.74831,-8.70632 -2.25589,-2.50968 -6.32354,-2.60838 -9.36195,-1.14909 -3.0384,1.45927 -5.30134,4.12404 -7.46558,6.71127 -2.91152,3.48958 -5.68909,9.14342 -2.12196,11.96328 2.31229,1.82586 5.68202,0.8389 8.3891,-0.31018 5.97106,-2.53789 11.75178,-5.54104 17.26462,-8.97423 2.29113,-1.42403 4.63867,-2.96791 7.31754,-3.32744 2.67887,-0.36658 5.79481,0.85301 6.62668,3.42614 0.52168,1.59322 0.0775,3.32744 -0.36658,4.94181 -3.53188,12.85857 -7.07081,25.72422 -10.60269,38.5828 7.59248,-10.39826 15.17792,-20.7965 22.77041,-31.19475 1.81881,-2.49558 4.68097,-5.3084 7.50789,-4.06061 1.54387,0.68382 2.34753,2.35459 3.0243,3.89846 4.69507,10.65909 9.39015,21.31113 14.09227,31.97021"
   id="path1-7"
   style="stroke:#00ff00;stroke-width:0.704966;stroke-opacity:1"
   inkscape:label="path7" /><path
   class="st0"
   d="m 822.88895,104.11526 c -4.80787,18.03302 -8.1353,36.46789 -9.93297,55.04374 5.31545,-22.30513 15.87584,-43.34835 30.58848,-60.93727 1.65667,8.67109 -1.02925,17.49023 -2.97496,26.09785 -1.9457,8.60764 -3.04545,18.15993 1.34649,25.81586 7.57133,-15.67846 15.14267,-31.35689 22.72105,-47.03534 -2.67182,14.77609 -3.49663,29.89056 -2.44622,44.87109 10.31365,-12.92908 18.57584,-27.48663 24.39185,-42.97473 -1.15615,9.67213 -2.30524,19.34427 -3.46139,29.0164 -0.29614,2.47443 -0.3384,5.51988 1.78354,6.83113 3.04545,1.88929 6.45753,-1.78357 8.16354,-4.94181 7.20471,-13.30977 14.41651,-26.61953 21.62121,-39.92929 -5.83001,36.72874 -15.24136,72.88644 -28.0717,107.78931 -4.7444,12.90793 -10.1797,25.99209 -19.76724,35.84047 -3.1653,3.2499 -6.90162,6.17551 -11.32175,7.19771 -4.42015,1.02219 -9.6087,-0.282 -12.13247,-4.04651 -3.44728,-5.14625 -0.78956,-12.04786 2.15721,-17.49021 17.3915,-32.14645 43.29195,-59.64012 74.34573,-78.9139 6.90855,-4.29324 14.14165,-8.21285 21.95265,-10.48284"
   id="path2-9"
   style="stroke:#00ff00;stroke-width:0.704966;stroke-opacity:1"
   inkscape:label="path8" /><path
   class="st1"
   d="m 982.5707,119.67385 c 31.526,-22.7986 53.0558,-58.935162 58.0963,-97.510906 -19.1046,18.921284 -32.6257,42.883084 -42.4178,67.923476 -9.7919,25.04041 -16.0591,51.30038 -22.2911,77.46168 2.2772,-1.32534 4.5541,-2.64363 6.8312,-3.96896"
   id="path3-0"
   style="stroke:#00ff00;stroke-width:0.704966;stroke-opacity:1"
   inkscape:label="path9" /><path
   class="st1"
   d="m 1015.1754,107.92912 c -2.7917,9.70739 -5.5762,19.41476 -8.3679,29.12215 -0.8813,3.05955 -1.4241,7.08491 1.276,8.77682 2.9115,1.82587 6.4715,-0.94465 8.7837,-3.48958 11.9634,-13.21107 23.9267,-26.42212 35.89,-39.6332 -7.4304,35.99557 -16.8911,71.56815 -28.3115,106.49923 5.3437,-38.90708 24.9488,-75.69221 54.2753,-101.80415 2.8058,-2.49557 7.0709,-4.95591 9.9753,-2.57312 2.249,1.84701 1.9105,5.35069 1.1421,8.15645 -6.1262,22.49547 -27.7122,39.85174 -50.9973,41.00788 3.9125,-1.40288 7.8252,-2.80577 11.7447,-4.2016"
   id="path4-2"
   style="stroke:#00ff00;stroke-width:0.704966;stroke-opacity:1"
   inkscape:label="path10" /><path
   class="st1"
   d="m 1130.092,98.80685 c -8.7346,2.45328 -17.004,6.56324 -24.2439,12.04083 7.6913,0.46528 13.1477,9.05176 12.0338,16.67949 -1.1137,7.62775 -7.247,13.76799 -14.2473,16.99673 -7.0004,3.22875 -14.8254,4.06061 -22.4955,4.84312 43.4682,-23.99704 92.8792,-37.15171 142.523,-37.94831"
   id="path5-3"
   style="stroke:#00ff00;stroke-width:0.704966;stroke-opacity:1"
   inkscape:label="path11" /><path
   class="st1"
   d="m 1019.7789,94.23868 c -0.6698,2.02325 -1.3466,4.03944 -2.0163,6.0627 1.5298,-2.34754 2.2277,-5.22379 1.9458,-8.00842 -1.8118,1.03631 -2.7212,3.43319 -2.0515,5.4071 2.404,-0.50758 4.2721,-2.86216 4.2227,-5.31545 -2.0443,-0.32429 -3.9125,2.17835 -3.0313,4.04651"
   id="path6-9"
   style="stroke:#00ff00;stroke-width:0.704966;stroke-opacity:1"
   inkscape:label="path12" /></svg>
