<?xml version="1.0" encoding="UTF-8" standalone="no"?>
<!-- Generator: Adobe Adobe Illustrator 24.2.0, SVG Export Plug-In . SVG Version: 6.00 Build 0)  -->

<svg
   version="1.1"
   id="Layer_2"
   x="0px"
   y="0px"
   width="1500"
   height="250"
   viewBox="0 0 1500 250"
   xml:space="preserve"
   sodipodi:docname="02_and in my hair.svg"
   inkscape:version="1.3.2 (091e20e, 2023-11-25)"
   xmlns:inkscape="http://www.inkscape.org/namespaces/inkscape"
   xmlns:sodipodi="http://sodipodi.sourceforge.net/DTD/sodipodi-0.dtd"
   xmlns="http://www.w3.org/2000/svg"
   xmlns:svg="http://www.w3.org/2000/svg"><defs
   id="defs3" /><sodipodi:namedview
   id="namedview3"
   pagecolor="#ffffff"
   bordercolor="#000000"
   borderopacity="0.25"
   inkscape:showpageshadow="2"
   inkscape:pageopacity="0.0"
   inkscape:pagecheckerboard="0"
   inkscape:deskcolor="#d1d1d1"
   inkscape:zoom="0.77209304"
   inkscape:cx="806.24998"
   inkscape:cy="-3.8855421"
   inkscape:window-width="1680"
   inkscape:window-height="997"
   inkscape:window-x="0"
   inkscape:window-y="25"
   inkscape:window-maximized="0"
   inkscape:current-layer="Layer_2"
   showguides="true"><sodipodi:guide
     position="599.55793,341.97484"
     orientation="1,0"
     id="guide1"
     inkscape:locked="false" /><sodipodi:guide
     position="473.78309,99.632672"
     orientation="0,-1"
     id="guide2"
     inkscape:locked="false" /></sodipodi:namedview>
<style
   type="text/css"
   id="style1">
	.st0{fill:none;stroke:#000000;stroke-miterlimit:10;}
</style>
<path
   class="st0"
   d="m 84.62651,125.3599 c -0.49157,-4.55575 -3.69552,-8.71651 -7.97039,-10.36677 -15.23854,13.60583 -25.789642,32.36434 -29.502718,52.4483 18.556608,-11.59567 33.435248,-28.98482 42.011308,-49.12145 -12.0258,11.51668 -20.02252,27.159 -22.32235,43.64401 19.8733,-13.08794 38.46501,-28.14213 55.40646,-44.85537 2.32616,11.21823 -0.21067,23.35816 -6.82925,32.6979 4.74888,-11.42891 11.96436,-21.82201 21.00565,-30.27518 -4.33631,10.01565 -5.60911,21.32166 -3.6253,32.04832 18.65317,-14.37829 37.30633,-28.7478 55.95948,-43.1261 -10.39309,9.85764 -19.17982,21.39188 -25.91252,34.03214 -2.34371,4.38897 -3.98519,10.79689 0.15801,13.55316 3.59018,2.38762 8.30395,-0.26333 11.68345,-2.94061 31.84644,-25.30686 55.87171,-60.304562 68.03796,-99.120699 -12.71048,10.19121 -25.22785,21.347995 -32.69789,35.83163 -7.47005,14.483619 -8.95352,33.057779 0.158,46.567049 9.11152,13.50929 30.39808,18.49517 42.40633,7.4876"
   id="path2"
   style="stroke:#00ff00;stroke-width:0.877796;stroke-opacity:1"
   inkscape:label="path1" /><path
   class="st0"
   d="m 347.40347,105.05648 c -7.66317,18.03871 -13.9394,36.65676 -15.2561,57.57463 24.73628,-19.26761 44.97825,-44.25846 53.75622,-64.956883 -7.30326,18.091373 -14.59776,36.182743 -21.90101,54.274113 1.04458,-7.68072 2.22959,-15.70377 6.74147,-22.00634 4.51187,-6.30258 13.48294,-10.1561 20.25953,-6.39913 4.73131,2.6246 7.11893,8.02305 11.01633,11.77124 7.65438,7.3647 19.5924,7.26814 30.19618,6.70637 42.45021,-2.25595 84.89164,-4.51188 127.34184,-6.76781"
   id="path1"
   style="stroke:#00ff00;stroke-width:0.877796;stroke-opacity:1"
   inkscape:label="path2" />

<path
   class="st0"
   d="m 350.62497,72.858939 c -2.60705,4.652318 -5.22288,9.304638 -7.82994,13.956957 4.66988,-1.738035 8.95351,-4.51187 12.44715,-8.075724 1.25525,-1.281582 2.47539,-2.835281 2.4227,-4.625984 -0.10532,-3.69552 -5.70566,-4.880546 -8.54094,-2.501719 -2.82651,2.378827 -3.47607,6.407911 -3.93252,10.077099 6.03045,-0.166784 11.77123,-4.204645 13.96573,-9.831316 -5.63545,0.956797 -10.81445,4.362646 -13.91308,9.164189 2.23839,-1.114801 3.81843,-3.432182 4.04665,-5.925123 -1.24646,-0.07023 -2.50172,0.693459 -3.01084,1.825815 2.01893,0.201895 4.03786,0.403788 6.06557,0.60568"
   id="path3"
   style="stroke:#00ff00;stroke-width:0.877796;stroke-opacity:1" />
<style
   type="text/css"
   id="style1-0">
	.st0{fill:none;stroke:#000000;stroke-miterlimit:10;stroke-dasharray:0,0,0,0,0,0;}
	.st1{fill:none;stroke:#000000;stroke-miterlimit:10;}
</style><g
   id="g1"
   transform="matrix(0.64788114,0,0,0.64788114,558.35417,13.157731)"><path
     class="st0"
     d="m 183.7,134.55 c -6.82,25.58 -11.54,51.73 -14.09,78.08 7.54,-31.64 22.52,-61.49 43.39,-86.44 2.35,12.3 -1.46,24.81 -4.22,37.02 -2.76,12.21 -4.32,25.76 1.91,36.62 10.74,-22.24 21.48,-44.48 32.23,-66.72 -3.79,20.96 -4.96,42.4 -3.47,63.65 14.63,-18.34 26.35,-38.99 34.6,-60.96 -1.64,13.72 -3.27,27.44 -4.91,41.16 -0.42,3.51 -0.48,7.83 2.53,9.69 4.32,2.68 9.16,-2.53 11.58,-7.01 10.22,-18.88 20.45,-37.76 30.67,-56.64 -8.27,52.1 -21.62,103.39 -39.82,152.9 -6.73,18.31 -14.44,36.87 -28.04,50.84 -4.49,4.61 -9.79,8.76 -16.06,10.21 -6.27,1.45 -13.63,-0.4 -17.21,-5.74 -4.89,-7.3 -1.12,-17.09 3.06,-24.81 24.67,-45.6 61.41,-84.6 105.46,-111.94 9.8,-6.09 20.06,-11.65 31.14,-14.87"
     id="path1-5"
     style="stroke:#00ff00;stroke-opacity:1" /><path
     class="st1"
     d="m 443.58,58.56 c -18.44,58.01 -33.7,117.03 -45.71,176.7 12.42,-29.16 27.5,-57.19 44.98,-83.63 2.94,-4.45 6.95,-9.38 12.28,-9.04 7.53,0.48 9.95,10.38 9.66,17.92 -0.55,14.3 -3.3,28.85 0.11,42.75 3.41,13.9 15.7,27.17 29.89,25.35"
     id="path2-6"
     style="stroke:#00ff00;stroke-opacity:1" /><path
     class="st1"
     d="m 564.35,169.04 c 1.17,-9.53 2.34,-19.06 3.51,-28.59 -27.34,16.11 -46.28,45.69 -49.48,77.27 -0.46,4.52 -0.12,10.01 3.82,12.26 3.99,2.28 8.95,-0.33 12.58,-3.14 19.87,-15.4 32.65,-39.61 34.14,-64.71 -10.01,13.32 -15.09,30.26 -14.05,46.88 0.32,5.22 1.57,10.96 5.85,13.96 3.98,2.78 9.56,2.26 13.83,-0.05 4.27,-2.31 7.51,-6.1 10.59,-9.86 16.78,-20.48 31.84,-42.37 44.98,-65.37 -6.49,16.47 -12.98,32.95 -19.47,49.42 -2.15,5.45 -3.85,12.72 0.8,16.28 4.44,3.4 10.75,0.35 15.42,-2.71 13.25,-8.68 26.49,-17.35 39.74,-26.03"
     id="path3-8"
     style="stroke:#00ff00;stroke-opacity:1" /><path
     class="st1"
     d="m 687.99,153.77 c -13.27,25.39 -21.93,53.19 -25.43,81.62 -4.46,-28.96 12.75,-58.09 36.78,-74.86 24.03,-16.77 53.76,-23.15 82.88,-26.35 29.13,-3.19 58.68,-3.6 87.25,-10.11"
     id="path4"
     style="stroke:#00ff00;stroke-opacity:1" /><path
     class="st1"
     d="m 636.85,95.77 c -3.02,6.73 -6.04,13.47 -9.06,20.2 5.25,-5.89 7.56,-14.29 6.06,-22.04 -4.32,4.85 -5.72,12.11 -3.51,18.22 4.93,-3.66 7.67,-10.08 6.87,-16.17 -5.36,2.66 -8.24,9.49 -6.4,15.19 3.04,-1.67 4.33,-5.92 2.72,-9 -4.57,1.12 -7.16,7.09 -4.86,11.19 5.17,-1.78 8.68,-7.46 7.97,-12.87 -0.26,1.47 -0.52,2.93 -0.78,4.4"
     id="path5"
     style="stroke:#00ff00;stroke-opacity:1" /><path
     class="st1"
     d="m 770.41,214.07 c -4.06,3.49 -8.11,6.99 -12.17,10.48 5.05,0.08 9.73,-4.38 9.91,-9.42 -5.65,-1.51 -12.1,3.02 -12.6,8.85 3.73,-1.24 6.23,-5.41 5.57,-9.28 -3.05,2.98 -3.82,8.03 -1.78,11.78 3.68,0.32 5.74,-5.65 2.65,-7.67 -3.09,-2.02 -7.73,2.25 -5.97,5.5"
     id="path6"
     style="stroke:#00ff00;stroke-opacity:1" /><path
     class="st1"
     d="m 838.34,218.65 c -2.2,3.76 -4.41,7.52 -6.61,11.28 4.49,-2.52 7.44,-7.57 7.41,-12.72 -3.28,-3.16 -9.78,-0.6 -10.3,3.93 -0.52,4.53 4.76,8.5 9.07,7.03 4.31,-1.47 6.18,-7.43 3.74,-11.28 -2.44,-3.85 -8.26,-4.85 -12.04,-2.31 -3.78,2.54 -5.14,7.97 -3.33,12.15 4.92,-0.72 9.53,-3.33 12.69,-7.17 -2.42,2.15 -6.1,2.76 -9.08,1.49"
     id="path7"
     style="stroke:#00ff00;stroke-opacity:1" /><path
     class="st1"
     d="m 917.71,219.66 c -7.63,-0.28 -15.34,2.16 -21.43,6.77 4.25,2.3 10.34,0.93 12.6,-3.35 2.26,-4.28 -0.71,-10.55 -5.53,-10.93 -4.82,-0.37 -8.61,6.35 -5.39,9.95 3.92,3.6 11.58,-0.69 10.56,-5.92 -4.66,-1.78 -10.53,1.84 -11.02,6.81 3.42,0.63 7.04,-2.34 7.09,-5.82 -3.23,0.9 -5.98,3.41 -7.16,6.55 -0.59,-1.11 0.33,-2.69 1.58,-2.73 1.26,-0.04 2.27,1.48 1.76,2.62"
     id="path8"
     style="stroke:#00ff00;stroke-opacity:1" /></g></svg>
