<?xml version="1.0" encoding="UTF-8" standalone="no"?>
<!-- Generator: Adobe Adobe Illustrator 24.2.0, SVG Export Plug-In . SVG Version: 6.00 Build 0)  -->

<svg
   version="1.1"
   id="Layer_2"
   x="0px"
   y="0px"
   width="1500"
   height="250"
   viewBox="0 0 1500 250"
   xml:space="preserve"
   sodipodi:docname="03_binary.svg"
   inkscape:version="1.3.2 (091e20e, 2023-11-25)"
   xmlns:inkscape="http://www.inkscape.org/namespaces/inkscape"
   xmlns:sodipodi="http://sodipodi.sourceforge.net/DTD/sodipodi-0.dtd"
   xmlns="http://www.w3.org/2000/svg"
   xmlns:svg="http://www.w3.org/2000/svg"><defs
   id="defs4" /><sodipodi:namedview
   id="namedview4"
   pagecolor="#505050"
   bordercolor="#eeeeee"
   borderopacity="1"
   inkscape:showpageshadow="0"
   inkscape:pageopacity="0"
   inkscape:pagecheckerboard="0"
   inkscape:deskcolor="#505050"
   inkscape:zoom="0.52235172"
   inkscape:cx="854.78803"
   inkscape:cy="-187.61305"
   inkscape:window-width="1680"
   inkscape:window-height="997"
   inkscape:window-x="0"
   inkscape:window-y="25"
   inkscape:window-maximized="0"
   inkscape:current-layer="Layer_2"
   showguides="true"><sodipodi:guide
     position="600.29949,279.83307"
     orientation="1,0"
     id="guide1"
     inkscape:locked="false" /><sodipodi:guide
     position="150.03036,98.547549"
     orientation="0,-1"
     id="guide2"
     inkscape:locked="false" /></sodipodi:namedview>
<style
   type="text/css"
   id="style1">
	.st0{fill:none;stroke:#000000;stroke-miterlimit:10;}
	.st1{fill:none;stroke:#000000;stroke-width:1.0209;stroke-miterlimit:10;}
</style>
<path
   class="st1"
   d="M 47.591395,91.599484 C 25.922387,109.95854 14.587665,139.64168 18.546836,167.65388 34.096157,163.24237 43.014933,147.49084 50.2947,133.14949 c 4.906391,-9.67442 9.850032,-21.22733 4.847856,-30.85385 -2.783127,-5.358725 -8.572883,-9.04118 -14.634032,-9.31257 -6.06115,-0.271398 -12.164871,2.884232 -15.416285,7.97155 -1.633691,2.54898 -2.330803,6.40705 0.101109,8.23231 2.208409,1.65498 5.342752,0.45763 7.811911,-0.78227 17.709838,-8.9028 35.419677,-17.805611 53.129512,-26.708427 -6.125006,34.036097 -16.34754,67.343167 -30.380245,98.979277 9.722318,-25.96877 23.148374,-50.56458 39.75667,-72.8296 -5.55029,10.75468 -9.387066,22.3874 -11.313438,34.32346 -0.627933,3.87403 -0.532146,8.80702 3.017272,10.5365 3.698418,1.80398 7.769339,-1.45809 10.584397,-4.44875 3.943203,-4.19331 7.934293,-8.45581 10.557783,-13.56441 2.62349,-5.10861 3.74099,-11.27085 1.6603,-16.61893 -2.07539,-5.35341 -7.91302,-9.41368 -13.575053,-8.29618 -5.662047,1.1175 -9.504145,8.37599 -6.316586,13.16 15.426919,-10.57376 30.853859,-21.14219 46.286109,-31.715938 -4.55518,28.714628 -11.93073,56.982268 -21.99362,84.276058"
   id="path1"
   style="stroke:#00ff00;stroke-opacity:1" />
<path
   class="st1"
   d="m 150.82783,97.990562 c -10.8824,14.144448 -18.76348,30.550548 -22.98339,47.850618 -1.30378,5.34807 -0.94724,12.91522 4.48065,14.02206 3.37381,0.68647 6.48687,-1.85186 8.88684,-4.30507 8.54628,-8.74848 15.693,-18.83798 21.09961,-29.77892 2.95341,-5.98131 5.43854,-12.56397 4.57115,-19.17323 -0.8674,-6.609256 -6.10373,-13.058878 -12.80878,-13.239809 -6.71036,-0.175605 -12.51076,8.344049 -8.47708,13.670839 2.26694,2.996 6.54008,3.89533 10.2385,3.17692 3.69843,-0.72371 6.97644,-2.77248 10.15868,-4.784 9.71167,-6.146289 19.42866,-12.287265 29.14034,-18.433552 -10.79725,21.828652 -18.69962,45.072822 -23.44107,68.934272 9.58931,-15.14491 19.17858,-30.28978 28.76785,-45.43999 -6.6465,11.96263 -9.75423,25.83571 -8.84427,39.46397 9.52544,-4.51792 16.40609,-14.13912 17.56085,-24.56387 0.53745,-4.86914 -0.47362,-10.48861 -4.57647,-13.20257 -4.10283,-2.71394 -11.27619,0.36186 -10.42476,5.18843 9.49349,-2.63945 18.98166,-5.27359 28.47516,-7.91301 -0.1756,13.79324 -0.3512,27.58647 -0.52151,41.37971 -0.0266,2.03279 0.10111,4.39022 1.74546,5.6035 2.64478,1.94765 6.17289,-0.81419 8.12588,-3.43768 6.83807,-9.1795 11.93072,-19.64152 14.93203,-30.6729 1.48469,-5.45451 2.45319,-11.23361 1.18669,-16.74135 -1.26651,-5.5077 -5.19376,-10.706777 -10.70147,-12.116968 -5.12989,-1.309076 -10.4886,0.787578 -15.15022,3.283342 -13.09613,7.013686 -24.23395,17.598096 -31.87557,30.279146 22.18518,-8.40261 44.3704,-16.80519 66.55557,-25.21311"
   id="path2"
   style="stroke:#00ff00;stroke-opacity:1" />
<path
   class="st1"
   d="m 276.26009,104.77011 c -10.34492,10.14804 -18.89651,22.0841 -25.1652,35.11104 -1.75609,3.65584 -3.20354,8.38662 -0.51087,11.42518 2.89489,3.25673 8.25894,2.00086 12.1489,0.006 8.01948,-4.11881 15.18214,-10.6855 17.93336,-19.22113 2.7565,-8.53564 0.0958,-19.07746 -7.57777,-23.80291 -7.66824,-4.72549 -19.73731,-1.15478 -22.04152,7.51389 18.08766,-10.80788 36.17,-21.621108 54.25767,-32.429 -9.55737,29.25209 -19.10939,58.49887 -28.66675,87.75097 10.31834,-24.65435 23.2761,-48.22312 38.58063,-70.17417 -5.17245,16.84243 -10.34492,33.68488 -15.5174,50.52199 11.22299,-15.24599 22.44596,-30.49198 33.67425,-45.738 -4.86914,11.12187 -7.54052,23.19093 -7.81191,35.31856 -0.0799,3.51217 0.18624,7.38619 2.64475,9.9139 2.92151,2.99599 8.00883,2.86296 11.67531,0.83546 3.6665,-2.02745 6.24741,-5.51302 8.70591,-8.89216 5.11395,-7.019 10.22254,-14.03804 15.33647,-21.05703 3.28866,-4.5126 6.64653,-9.17953 7.95027,-14.60211 1.30375,-5.42257 0.0532,-11.840258 -4.48066,-15.123599 -5.22569,-3.783563 -12.60123,-2.18712 -18.46018,0.532148 -15.27261,7.082867 -27.20865,20.929311 -31.89153,37.010781 2.07536,0.77161 4.15073,1.54323 6.2261,2.30952"
   id="path3"
   style="stroke:#00ff00;stroke-opacity:1" />
<path
   class="st1"
   d="m 390.79402,81.01509 c -9.66379,34.0893 -19.32224,68.18394 -28.98604,102.27324 11.89349,-27.70885 27.00646,-54.06076 44.93445,-78.35857 -11.02607,14.39987 -22.6854,31.63611 -18.0983,49.14374 11.03674,-5.55031 20.60473,-13.94757 27.50133,-24.14349 4.65629,-6.88066 7.82789,-16.81583 2.14989,-22.88763 -4.16141,-4.45408 -11.53694,-4.51792 -17.01273,-1.8093 -5.47581,2.71394 -9.49882,7.57776 -13.34623,12.30323 13.09079,-3.55474 25.65478,-9.01458 37.1651,-16.15597 -5.06072,16.23046 -8.89748,32.83877 -11.46244,49.64395 9.29661,-3.44299 17.35862,-10.06821 22.50981,-18.48677 3.40573,-5.5769 5.57688,-12.21809 4.38488,-18.63577 -1.19201,-6.4177 -6.40173,-12.32984 -12.94712,-12.90456 -6.54539,-0.57472 -13.23449,5.65672 -11.85089,12.03715 11.29746,-5.63543 23.51555,-9.4456 36.03163,-11.24957 -2.72459,12.94712 -5.44385,25.89426 -8.16846,38.84137 -0.90994,4.32636 -1.06961,10.14803 3.08645,11.73915 3.10774,1.19201 6.41238,-1.04831 8.86558,-3.28333 8.65802,-7.89707 15.69831,-17.52893 20.56745,-28.15588 3.36318,-7.3383 4.93299,-17.6034 -1.8093,-22.094729 -4.2678,-2.846976 -9.95115,-1.878467 -14.9267,-0.595998 -13.00567,3.352517 -25.63884,8.115227 -37.6068,14.187037 47.95705,-22.020238 98.89944,-37.606809 151.02318,-46.195655"
   id="path4"
   style="stroke:#00ff00;stroke-opacity:1" />
<style
   type="text/css"
   id="style1-9">
	.st0{fill:none;stroke:#000000;stroke-width:1.0061;stroke-miterlimit:10;}
</style><path
   class="st0"
   d="m 675.44577,113.41884 c -13.37108,18.55796 -22.7398,39.98758 -27.28507,62.4088 -0.80315,3.97093 -0.9961,9.03669 2.51269,11.04683 4.09209,2.3422 8.81234,-1.74094 11.59873,-5.54584 11.4013,-15.56072 19.90853,-33.24373 24.95186,-51.86899 1.60182,-5.92276 2.86265,-12.1596 1.58388,-18.15863 -1.27878,-5.99904 -5.6984,-11.706418 -11.7423,-12.742902 -6.04392,-1.036482 -12.83715,4.329892 -11.81861,10.382762 0.74484,4.44208 5.15999,7.53805 9.61102,8.17969 4.45105,0.64163 8.94248,-0.6506 13.21852,-2.05053 14.60947,-4.78755 28.74332,-11.0244 42.12785,-18.598351 -13.1871,23.000041 -24.71405,46.951301 -34.46416,71.607021 11.03338,-21.45206 25.6922,-41.03303 43.15985,-57.65714 -5.55036,14.71268 -11.10069,29.42983 -16.64654,44.14248 15.93758,-15.81644 31.87968,-31.63738 47.81728,-47.45383 -9.64692,15.3139 -15.96901,32.71425 -18.40542,50.65302 10.86287,-5.07921 20.5367,-12.69355 28.0299,-22.06226 4.71576,-5.89584 8.69118,-12.89097 8.68669,-20.44249 -0.005,-7.55151 -5.17342,-15.47095 -12.66212,-16.381801 -7.4887,-0.910844 -14.87869,8.013681 -11.0603,14.524221 19.29831,-5.92726 38.60111,-11.85449 57.89943,-17.781734 -9.8264,15.955554 -17.29716,33.360354 -22.09817,51.478624 -0.84802,3.1947 -0.30511,8.10339 2.98831,7.85661 1.57042,-0.11666 2.66972,-1.54349 3.53571,-2.85817 7.88353,-11.93974 13.90052,-25.1089 17.76376,-38.88379 1.23391,-4.39272 2.24796,-9.05015 1.13521,-13.474269 -1.11278,-4.42412 -4.98499,-8.466844 -9.53922,-8.287369 -6.55093,0.255755 -9.80395,9.521278 -6.1516,14.968418 3.65238,5.45162 11.334,6.87398 17.68303,5.23626 6.349,-1.63774 11.76024,-5.67149 17.19393,-9.34628 5.43367,-3.674812 11.37438,-7.17014 17.92532,-7.470761 -13.76145,26.410111 -27.52289,52.824691 -41.27983,79.234791 11.61668,-20.16428 25.6204,-38.95107 41.62081,-55.84441 -3.95745,9.35528 -7.91494,18.71502 -11.87242,28.07029 -1.59735,3.77351 -2.66973,9.18925 0.96021,11.08721 2.48125,1.29673 5.47405,-0.17948 7.73547,-1.82617 7.87907,-5.74777 13.80182,-14.13835 16.57924,-23.48912 1.35056,-4.53629 1.95629,-9.49884 0.38587,-13.96335 -1.57043,-4.46449 -5.75674,-8.2425 -10.49046,-8.15724 -4.73371,0.0853 -9.08606,5.06575 -7.59638,9.56166 1.198,3.61647 5.42919,5.50098 9.22962,5.24073 3.80044,-0.25575 7.26884,-2.14924 10.59816,-4.00234 12.33458,-6.85605 24.66916,-13.71207 37.00375,-20.5726 -11.4686,24.77686 -22.93273,49.55821 -34.40133,74.33507"
   id="path1-8"
   style="stroke:#00ff00;stroke-opacity:1" /><path
   class="st0"
   d="m 939.42116,110.45746 c -8.59693,-0.33204 -16.45356,5.59521 -20.9001,12.96724 -4.44656,7.36756 -6.12469,16.02735 -7.73099,24.48072 -0.92881,4.89525 -0.98265,11.45517 3.69723,13.15122 3.32033,1.20698 6.81565,-1.0679 9.53472,-3.32033 11.57635,-9.5841 21.55973,-21.09309 29.42093,-33.91226 4.05605,-6.61375 7.52904,-15.21072 3.41457,-21.78856 -4.54986,-7.277816 -16.06335,-6.869502 -22.69044,-1.41339 -6.62728,5.45612 -9.59314,14.07551 -12.25391,22.23725 13.36207,-1.45377 26.36972,-6.06185 37.66788,-13.34415 -2.80883,12.20895 -5.61767,24.4179 -8.42642,36.62688 -1.10393,4.78755 -1.68268,10.93913 2.49468,13.5236 3.63446,2.24797 8.33225,0.0584 11.83199,-2.39154 6.44768,-4.51384 12.21339,-9.99687 17.04146,-16.21129 4.48687,-5.77468 8.23801,-12.37048 9.29236,-19.6079 1.05426,-7.23744 -0.95572,-15.20175 -6.43432,-20.04315 -5.47853,-4.841408 -14.62743,-5.572775 -20.00263,-0.61471 -5.37535,4.95807 -4.65295,15.34532 1.92031,18.54899 5.82404,2.84023 12.6486,-0.40831 18.28868,-3.59404 15.01794,-8.47581 30.03564,-16.951641 45.05344,-25.427463 -16.8754,34.782723 -33.74633,69.574423 -50.62157,104.366143 15.55616,-32.36876 36.20057,-62.28318 60.93707,-88.31189 -4.4332,11.72436 -8.8708,23.44874 -13.3038,35.1731 -2.046,5.41574 -3.3563,13.00763 1.7633,15.69979 3.9844,2.09539 8.718,-0.74034 12.155,-3.6434 8.3683,-7.0714 15.7314,-15.33634 21.793,-24.46726 3.8051,-5.72982 7.0402,-13.55504 2.9571,-19.08743 -3.7198,-5.03434 -11.2937,-4.91319 -17.3197,-3.23956 -15.3811,4.26708 -28.6265,15.66389 -35.155,30.23745"
   id="path2-6"
   style="stroke:#00ff00;stroke-opacity:1" /><path
   class="st0"
   d="m 1084.5467,110.72218 c -10.652,15.01329 -17.9299,32.41364 -21.1425,50.54086 18.4233,-7.26883 32.8445,-23.94679 37.3851,-43.23611 1.0903,-4.63951 1.5928,-9.7232 -0.5249,-13.99027 -3.7063,-7.470753 -14.2102,-9.234118 -21.8739,-5.963141 -7.6682,3.270971 -13.1288,10.104571 -18.2618,16.677941 21.1468,-1.58838 42.1054,-5.72982 62.2697,-12.29869 -4.8056,11.70193 -9.6156,23.40385 -14.421,35.10578 -2.1313,5.18691 -3.3159,12.84609 1.9025,14.88766 4.8459,1.89798 9.1714,-3.58057 11.5225,-8.22905 4.3432,-8.57453 8.8078,-17.76825 7.8072,-27.32992 -1.0007,-9.56166 -9.9924,-18.907949 -19.2938,-16.50295 3.3069,7.17462 13.6582,6.33556 21.2412,4.12798 7.5829,-2.20758 17.6245,-3.76453 21.7212,2.99279 2.7459,4.53181 0.9422,10.48147 -1.8891,14.96393 -2.8313,4.48245 -6.6585,8.46685 -8.2334,13.52811 -1.575,5.06127 0.3005,11.82758 5.447,13.09288 4.55,1.11724 8.7854,-2.4723 12.1013,-5.77916 7.5381,-7.51562 15.3678,-15.5293 18.1631,-25.79989 2.7954,-10.27509 -1.6197,-23.33656 -11.8679,-26.199222 -10.347,-2.894075 -20.2092,5.30356 -27.846,12.864052 10.163,10.42314 31.5163,-8.933494 41.0555,2.06398 3.8139,4.39721 2.7191,11.22632 0.2154,16.48052 -2.5037,5.2542 -6.2189,10.07765 -7.2284,15.81195 -1.0096,5.73433 2.2434,12.87752 8.0542,13.14224 4.2893,0.19294 7.7443,-3.30237 10.589,-6.51952 5.9677,-6.74834 12.1954,-14.05307 13.4249,-22.98208 1.6422,-11.96216 -6.865,-23.798702 -18.0015,-28.447173 -11.1321,-4.648462 -24.0771,-3.113934 -35.227,1.498641 -11.15,4.612564 -20.8644,12.042932 -30.4393,19.392532 74.6491,-18.35605 150.9449,-30.0176 227.667,-34.791701"
   id="path3-5"
   style="stroke:#00ff00;stroke-opacity:1" /><path
   class="st0"
   d="m 1242.0426,98.4235 c -5.7881,17.94326 -11.5764,35.88651 -17.3599,53.82978 -1.2384,3.84081 -2.4006,8.32325 -0.1437,11.67052 2.0954,3.10495 6.533,3.89465 10.0956,2.74152 3.5627,-1.14867 6.4074,-3.8184 8.9694,-6.55094 6.1202,-6.53297 11.4372,-14.08898 13.8467,-22.71288 2.4093,-8.62387 1.5884,-18.45027 -3.6523,-25.71013 -5.2408,-7.25986 -15.3185,-11.17247 -23.6597,-7.92841 -8.3411,3.24405 -13.0884,14.31332 -8.5341,22.02636 5.5817,9.45397 19.4778,8.95593 29.847,5.36637 21.0662,-7.29127 39.2741,-22.5289 50.1684,-41.988741 -10.9122,23.354491 -18.4412,48.288411 -22.282,73.783171 15.48,-23.94228 30.9643,-47.88009 46.4441,-71.822381 -6.7438,26.374221 -13.4876,52.743941 -20.2315,79.118141 20.9092,-27.2312 41.8183,-54.46242 62.7274,-81.698123 -8.7405,29.977223 -11.7154,61.628063 -8.718,92.713563"
   id="path4-7"
   style="stroke:#00ff00;stroke-opacity:1" /></svg>
