<?xml version="1.0" encoding="UTF-8" standalone="no"?>
<!-- Generator: Adobe Adobe Illustrator 24.2.0, SVG Export Plug-In . SVG Version: 6.00 Build 0)  -->

<svg
   version="1.1"
   id="Layer_2"
   x="0px"
   y="0px"
   width="1500"
   height="250"
   viewBox="0 0 1500 250"
   xml:space="preserve"
   sodipodi:docname="04_binary.svg"
   inkscape:version="1.3.2 (091e20e, 2023-11-25)"
   xmlns:inkscape="http://www.inkscape.org/namespaces/inkscape"
   xmlns:sodipodi="http://sodipodi.sourceforge.net/DTD/sodipodi-0.dtd"
   xmlns="http://www.w3.org/2000/svg"
   xmlns:svg="http://www.w3.org/2000/svg"><defs
   id="defs3" /><sodipodi:namedview
   id="namedview3"
   pagecolor="#505050"
   bordercolor="#eeeeee"
   borderopacity="1"
   inkscape:showpageshadow="0"
   inkscape:pageopacity="0"
   inkscape:pagecheckerboard="0"
   inkscape:deskcolor="#505050"
   inkscape:zoom="0.71058622"
   inkscape:cx="625.53986"
   inkscape:cy="111.17581"
   inkscape:window-width="1680"
   inkscape:window-height="997"
   inkscape:window-x="0"
   inkscape:window-y="25"
   inkscape:window-maximized="0"
   inkscape:current-layer="Layer_2"
   showguides="true"><sodipodi:guide
     position="599.74873,316.91242"
     orientation="1,0"
     id="guide1"
     inkscape:locked="false" /><sodipodi:guide
     position="585.90341,99.614115"
     orientation="0,-1"
     id="guide2"
     inkscape:locked="false" /></sodipodi:namedview>
<style
   type="text/css"
   id="style1">
	.st0{fill:none;stroke:#000000;stroke-miterlimit:10;}
	.st1{fill:none;stroke:#000000;stroke-width:1.0209;stroke-miterlimit:10;}
</style>
<path
   class="st1"
   d="M 81.608802,95.502368 C 61.156361,111.96198 48.589203,137.8036 48.265215,164.05134 67.750243,152.92616 82.621839,133.9796 88.79134,112.40461 c 0.944587,-3.30836 1.227507,-7.76208 -1.857243,-9.28163 -2.131031,-1.04955 -4.649937,0.0182 -6.762718,1.1043 C 73.4908,107.6634 66.965365,111.40526 60.622462,115.42547 77.666164,104.69273 96.594475,96.971732 116.28484,92.723356 101.81482,117.60669 86.997982,143.54414 84.529271,172.2241 102.20271,143.44376 120.25943,114.20252 145.59454,91.87459 c -6.39767,24.10303 -16.58282,47.19757 -30.06719,68.17935 9.50523,-10.97459 16.71059,-23.72884 25.37161,-35.37881 8.66104,-11.64994 19.30251,-22.54238 32.92377,-27.575628 -3.47263,25.047618 -10.83313,49.552218 -21.7347,72.368388"
   id="path1"
   style="stroke:#00ff00;stroke-opacity:1" />
<path
   class="st1"
   d="m 197.63372,104.387 c -15.64279,12.12909 -26.07435,30.76535 -28.2282,50.44203 6.01435,3.38136 13.14669,-1.7249 18.04761,-6.58476 5.34357,-5.29791 10.72817,-10.95176 13.21058,-18.05216 2.48241,-7.10041 1.25489,-16.0626 -4.81422,-20.50719 -6.0691,-4.44917 -16.77447,-1.22752 -17.57302,6.25163 15.52414,-8.19558 31.04826,-16.386588 46.57241,-24.582161 -7.12321,24.527391 -16.13562,48.502651 -26.9368,71.642841 12.1884,-24.25361 27.15126,-47.11087 44.50526,-67.98313 -7.86702,18.31683 -15.7386,36.62912 -23.60564,54.94596 12.37096,-16.06261 25.42638,-31.59131 39.12065,-46.53592 -6.13298,15.36443 -10.3266,31.50461 -12.43938,47.91401 14.39702,-5.70405 27.04175,-15.74773 35.85336,-28.47916 4.44916,-6.42961 7.93092,-15.09519 3.91526,-21.80773 -4.75488,-7.949158 -16.55542,-7.552149 -25.12519,-4.033888 -8.43287,3.458928 -16.02152,8.957638 -21.94005,15.893748"
   id="path2"
   style="stroke:#00ff00;stroke-opacity:1" />
<path
   class="st1"
   d="m 309.88484,90.569508 c -13.43875,32.284912 -25.15713,65.290812 -35.07764,98.826052 16.22233,-30.17669 33.12913,-61.19759 59.78302,-82.72694 -9.47785,13.9133 -16.14931,29.73405 -19.4896,46.23472 10.6643,-6.73078 19.8501,-15.77968 26.73601,-26.34358 3.65516,-5.60365 6.56651,-13.31552 2.46416,-18.59976 -3.77836,-4.86897 -11.73209,-4.42177 -16.65128,-0.7073 -4.91916,3.71448 -7.52933,9.66038 -9.88396,15.3553 14.10041,-6.57562 28.19625,-13.15126 42.29666,-19.72232 4.75034,-2.21316 10.13496,-4.467408 15.0587,-2.67405 7.88985,2.87028 8.94395,13.84944 6.27902,21.81229 -1.95306,5.83181 -5.14735,11.34877 -5.76795,17.46808 -0.61603,6.11928 2.55542,13.33378 8.62453,14.34682 4.9283,0.82136 9.45959,-2.65581 13.07367,-6.10563 5.05151,-4.81878 9.8201,-10.16689 12.47591,-16.61931 2.65579,-6.45242 2.91134,-14.22361 -0.78944,-20.14214 -5.28879,-8.4648 -17.39508,-10.70535 -26.6767,-7.02738 -9.28163,3.67797 -16.02154,11.9283 -20.80382,20.68973 29.5333,-6.58477 57.21847,-21.27381 79.22241,-42.041125 -12.85464,22.747745 -22.18191,47.489625 -27.53458,73.066575"
   id="path3"
   style="stroke:#00ff00;stroke-opacity:1" />
<style
   type="text/css"
   id="style1-3">
	.st0{fill:none;stroke:#000000;stroke-miterlimit:10;}
	.st1{fill:none;stroke:#000000;stroke-width:1.0209;stroke-miterlimit:10;}
</style><style
   type="text/css"
   id="style1-0">
	.st0{fill:none;stroke:#000000;stroke-width:1.0061;stroke-miterlimit:10;}
</style><path
   class="st0"
   d="m 655.70247,88.931218 c -13.46723,19.064832 -20.23619,42.767962 -18.8696,66.070542 15.45988,-15.89073 26.28145,-36.24472 30.80867,-57.948469 0.98623,-4.725813 1.53152,-10.13492 -1.46082,-13.924997 -4.21419,-5.338421 -13.27873,-3.93818 -17.94733,1.006423 -4.66859,4.944604 -6.11259,12.029965 -7.358,18.714773 14.8944,-6.620856 29.78879,-13.241712 44.68319,-19.8592 3.0967,-1.376681 6.72183,-2.749995 9.73438,-1.205017 5.00181,2.564866 3.6386,9.98682 1.54161,15.200701 -8.59667,21.367156 -17.19335,42.734306 -25.78666,64.101446 10.76772,-22.74382 25.49382,-43.60944 43.32334,-61.368284 -3.68909,19.081664 -13.1441,36.480334 -22.47118,53.528954 10.60615,-15.68203 23.45404,-29.84602 38.0354,-41.9231 -1.94216,12.54495 -1.71664,25.41977 0.66309,37.88731 8.10189,-7.54313 14.48039,-16.92072 18.52292,-27.22393 1.55843,-3.9752 2.75335,-8.52936 0.98959,-12.41368 -2.89473,-6.37178 -12.40695,-7.00795 -18.13583,-2.99571 -5.72887,4.0156 -8.57984,10.90573 -11.13797,17.41551"
   id="path1-2"
   style="stroke:#00ff00;stroke-opacity:1" /><path
   class="st0"
   d="m 770.25638,91.045044 c -9.65696,24.884586 -17.35156,50.529876 -22.98956,76.619476 11.32985,-24.96873 24.78025,-48.9748 40.15262,-71.6816 -7.82588,18.84941 -13.35615,38.65138 -16.42591,58.83034 7.95041,-17.73526 18.08196,-34.49104 30.09172,-49.77589 -0.7809,15.07952 -3.81027,30.04123 -8.95009,44.23888 7.39165,-16.16673 18.16275,-30.77838 31.42128,-42.61648 -1.58537,13.06331 -3.17074,26.12661 -4.75274,39.18993 -0.43421,3.57802 0.0606,8.47549 3.62514,9.01405 2.47061,0.37026 4.5003,-1.84455 5.96449,-3.86749 5.35189,-7.3984 10.04068,-15.27475 13.99569,-23.50791 3.42656,-7.13247 5.89717,-16.68846 0.1481,-22.12785 -4.45654,-4.21756 -11.9761,-3.39963 -16.97456,0.15484 -4.99846,3.55445 -8.07496,9.14869 -10.98652,14.55106 34.03328,-19.02781 70.89733,-32.996561 109.00343,-41.300398"
   id="path2-4"
   style="stroke:#00ff00;stroke-opacity:1" /><path
   class="st0"
   d="m 876.12609,97.965473 c -10.81822,12.736807 -19.25332,27.489837 -24.74321,43.272847 -1.00642,2.8981 -1.9287,5.9645 -1.42718,8.9905 0.50153,3.026 2.85098,5.96449 5.914,6.11596 3.14382,0.15483 5.65147,-2.47062 7.63402,-4.91431 8.3173,-10.26957 15.70224,-21.2931 22.03024,-32.89558 3.31885,-6.08567 6.16309,-14.19428 1.58537,-19.398062 -3.679,-4.183899 -10.61289,-3.914622 -15.31851,-0.929006 -4.70562,2.985608 -7.70806,7.957138 -10.54557,12.753638 12.86473,-7.93021 25.72944,-15.863793 38.59417,-23.794007 2.21814,-1.366582 5.17345,-2.7197 7.23684,-1.124233 1.7267,1.332922 1.67284,3.907887 1.42045,6.075567 -2.67932,22.797683 -9.83537,45.060173 -20.9397,65.148263 6.4088,-20.83196 18.16949,-39.99103 33.84142,-55.13788 0.0571,16.3485 -4.369,32.69026 -12.66617,46.77683 9.14872,-17.33472 22.51838,-32.41762 38.62788,-43.58253 -2.37306,14.19092 -4.74604,28.37845 -7.11568,42.56937 -0.59575,3.57129 -0.61593,8.26345 2.73993,9.62666 3.25147,1.32282 6.47942,-1.82436 8.52597,-4.67869 5.28459,-7.37483 10.07431,-15.10645 14.31884,-23.12418 3.19761,-6.03855 5.97122,-13.83076 1.83774,-19.27352 -2.96874,-3.90788 -8.62691,-4.91095 -13.38304,-3.70593 -4.75613,1.20501 -8.83231,4.19063 -12.77383,7.11229 29.84262,-16.260989 61.62743,-28.960776 94.45913,-37.739214"
   id="path3-8"
   style="stroke:#00ff00;stroke-opacity:1" /><path
   class="st0"
   d="m 989.98325,107.23871 c -11.43416,13.03638 -18.52629,29.81908 -19.91305,47.10332 15.26464,-7.19644 27.71875,-20.17224 34.2857,-35.71962 2.8073,-6.64779 4.1805,-15.29495 -1.0233,-20.293414 -4.73922,-4.547421 -12.8815,-3.456853 -18.03809,0.609237 -5.15667,4.066087 -8.05144,10.283027 -10.76442,16.264357 15.54067,-10.56578 31.08131,-21.128176 46.62201,-31.693941 2.1711,-1.474293 5.0052,-2.985612 7.2469,-1.615665 2.5918,1.58537 2.0128,5.449499 1.104,8.347595 -8.1153,25.917931 -16.234,51.835871 -24.3493,77.753801 11.0774,-24.84082 26.1502,-47.89432 44.461,-68.002601 -3.8541,12.430521 -7.7081,24.861021 -11.5587,37.291531 -0.7405,2.38984 -1.4676,5.04558 -0.4174,7.31762 2.2518,4.86382 9.731,3.28518 13.898,-0.0875 6.769,-5.4798 11.276,-14.1236 10.4716,-22.79433 -0.8045,-8.67072 -7.634,-16.80964 -16.2811,-17.84971 -8.6472,-1.04009 -17.7354,6.34484 -17.3583,15.04586 8.6672,-0.22888 16.2811,-5.4798 24.4503,-8.38125 8.1693,-2.90147 19.2196,-2.36291 23.1578,5.35862 2.9957,5.87361 0.3939,12.86471 -0.5587,19.39133 -0.9526,6.5266 1.6661,15.14683 8.2534,15.42285 5.6177,0.23561 9.1621,-5.7861 11.4071,-10.94276 2.9083,-6.67808 5.8534,-13.50762 6.4493,-20.76463 0.5958,-7.25703 -1.5685,-15.15359 -7.2907,-19.660622 -6.7724,-5.335051 -16.4191,-4.641658 -24.8509,-2.844232 -22.3365,4.759464 -43.3705,15.496904 -60.3249,30.801954 24.9419,3.82373 49.51,-6.81945 73.0717,-15.8537 57.9856,-22.238939 119.2293,-35.968713 181.163,-40.607014"
   id="path4"
   style="stroke:#00ff00;stroke-opacity:1" /></svg>
