<?xml version="1.0" encoding="UTF-8" standalone="no"?>
<!-- Generator: Adobe Adobe Illustrator 24.2.0, SVG Export Plug-In . SVG Version: 6.00 Build 0)  -->

<svg
   version="1.1"
   id="Layer_2"
   x="0px"
   y="0px"
   width="1500"
   height="250"
   viewBox="0 0 1500 250"
   xml:space="preserve"
   sodipodi:docname="05_binary.svg"
   inkscape:version="1.3.2 (091e20e, 2023-11-25)"
   xmlns:inkscape="http://www.inkscape.org/namespaces/inkscape"
   xmlns:sodipodi="http://sodipodi.sourceforge.net/DTD/sodipodi-0.dtd"
   xmlns="http://www.w3.org/2000/svg"
   xmlns:svg="http://www.w3.org/2000/svg"><defs
   id="defs3" /><sodipodi:namedview
   id="namedview3"
   pagecolor="#505050"
   bordercolor="#eeeeee"
   borderopacity="1"
   inkscape:showpageshadow="0"
   inkscape:pageopacity="0"
   inkscape:pagecheckerboard="0"
   inkscape:deskcolor="#505050"
   inkscape:zoom="0.60682271"
   inkscape:cx="620.44481"
   inkscape:cy="219.17439"
   inkscape:window-width="1680"
   inkscape:window-height="997"
   inkscape:window-x="0"
   inkscape:window-y="25"
   inkscape:window-maximized="0"
   inkscape:current-layer="Layer_2"
   showguides="true"><sodipodi:guide
     position="599.6533,112.11495"
     orientation="1,0"
     id="guide1"
     inkscape:locked="false" /></sodipodi:namedview>
<style
   type="text/css"
   id="style1">
	.st0{fill:none;stroke:#000000;stroke-miterlimit:10;}
	.st1{fill:none;stroke:#000000;stroke-width:1.0209;stroke-miterlimit:10;}
</style>

<path
   class="st1"
   d="m 55.028179,110.6094 c -17.670101,13.70103 -29.453606,34.75258 -31.886595,56.97936 6.793814,3.81961 14.850514,-1.94844 20.386595,-7.43813 6.036082,-5.98452 12.118557,-12.37114 14.922679,-20.39175 2.804124,-8.02063 1.417526,-18.14433 -5.438142,-23.16496 -6.855669,-5.02576 -18.948452,-1.38659 -19.850514,7.06187 17.536079,-9.25773 35.07216,-18.51031 52.608243,-27.76804 -8.046394,27.70618 -18.226804,54.78866 -30.427834,80.92783 13.76804,-27.3969 30.670102,-53.21648 50.273179,-76.79381 -8.886588,20.69072 -17.778337,41.37628 -26.664935,62.06699 13.97423,-18.14431 28.721645,-35.68555 44.195865,-52.56699 -6.92783,17.35567 -11.66494,35.58763 -14.05154,54.12371 16.2629,-6.44329 30.54638,-17.78866 40.5,-32.17011 5.02577,-7.26288 8.95877,-17.05154 4.42267,-24.63401 -5.37113,-8.979378 -18.70102,-8.530924 -28.38143,-4.55669 -9.52578,3.90721 -18.09794,10.11854 -24.78351,17.9536"
   id="path1"
   style="stroke:#00ff00;stroke-opacity:1" /><path
   class="st1"
   d="m 164.99724,105.59909 c -5.433,24.45876 -10.86598,48.91752 -16.29897,73.37113 9.41238,-27.18557 23.64947,-52.69071 41.84536,-74.96907 -7.04639,24.43299 -14.09279,48.86083 -21.13918,73.29381 6.5567,-26.9433 19.04124,-52.42783 36.31443,-74.1237 -1.21134,24.45361 -5.13917,48.77318 -11.69073,72.36081 9.78866,-27.46907 20.97422,-55.34019 40.97939,-76.561837 -4.21649,29.149467 -8.43298,58.304107 -12.64949,87.453597 1.54124,0.5206 3.08248,1.04639 4.62372,1.56701"
   id="path2"
   style="stroke:#00ff00;stroke-opacity:1" />
<path
   class="st1"
   d="m 256.48176,112.55786 c -8.5567,11.30927 -15.40721,23.90722 -20.25773,37.23709 -1.34019,3.69073 -2.46907,8.03609 -0.35566,11.34537 1.81957,2.84536 5.59278,3.92784 8.93298,3.4433 3.3402,-0.47939 6.34535,-2.23711 9.19588,-4.04124 10.70618,-6.7835 20.63402,-14.79896 29.52577,-23.82989 4.90207,-4.97938 9.81959,-11.30928 8.67011,-18.20618 -1.42784,-8.55671 -12.02063,-12.9433 -20.45878,-10.91753 -8.43813,2.02577 -15.03092,8.41751 -21.13401,14.58247 20.72165,-13.75256 43.80412,-23.938135 67.92783,-29.979371 1.01031,30.407201 -6.25258,61.051541 -20.79381,87.773191 11.13917,-26.07732 26.79896,-50.21135 46.07215,-71.0103 -6.43298,18.65463 -12.86597,37.30926 -19.29897,55.95875 12.16496,-20.48454 27.81445,-38.89176 46.07218,-54.19587 -4.95362,20.69586 -9.90722,41.39174 -14.85568,62.08762 21.96392,-12.79381 39.41237,-33.1701 48.68041,-56.8402 1.03608,-2.64434 1.97938,-5.56701 1.1134,-8.27319 -1.72164,-5.37114 -8.99484,-6.24743 -14.53608,-5.19588 -15.31959,2.90206 -29.06701,13.19587 -36.16495,27.07732 57.52061,-23.04124 116.23195,-46.365974 178.06184,-50.489691"
   id="path3"
   style="stroke:#00ff00;stroke-opacity:1" />
<style
   type="text/css"
   id="style1-9">
	.st0{fill:none;stroke:#000000;stroke-width:1.0061;stroke-miterlimit:10;}
</style><path
   class="st0"
   d="m 673.0022,80.802234 c -13.4829,34.935576 -24.23442,70.939116 -32.10888,107.566406 15.82409,-35.0537 34.6099,-68.75594 56.08005,-100.634103 -10.93015,26.462753 -18.65414,54.262843 -22.9416,82.592173 11.10413,-24.89863 25.25459,-48.42214 42.02831,-69.8806 -1.09068,21.17021 -5.3217,42.17503 -12.5004,62.10716 10.32374,-22.69654 25.36743,-43.20992 43.8853,-59.82947 -2.21428,18.33964 -4.4285,36.67927 -6.63806,55.01892 -0.60646,5.0232 0.0847,11.89879 5.06317,12.65487 3.45064,0.51981 6.2854,-2.58957 8.33043,-5.4296 7.47482,-10.38663 14.02351,-21.44428 19.54738,-33.00285 4.78579,-10.01331 8.23643,-23.42898 0.20687,-31.06538 -6.22435,-5.921043 -16.72669,-4.772745 -23.70791,0.21737 -6.98122,4.99012 -11.27807,12.84389 -15.34457,20.4283 47.53804,-26.722659 99.02509,-46.328733 152.24684,-57.986522"
   id="path1-1"
   style="stroke:#00ff00;stroke-opacity:1"
   inkscape:label="path4" /><path
   class="st0"
   d="m 815.64456,107.79898 c -6.16788,20.33852 -12.34049,40.67232 -18.50841,61.01084 7.8039,-4.64043 15.69712,-9.35175 22.0954,-15.8115 6.39826,-6.45503 11.24047,-14.95619 11.46611,-24.06694 0.22096,-9.11076 -5.02551,-18.62789 -13.60042,-21.58605 -8.57491,-2.95815 -19.57092,2.64155 -20.74617,11.67669 20.64273,-0.5765 41.12098,-6.43139 58.97596,-16.87 -6.22435,17.92379 -12.44397,35.84758 -18.66832,53.77138 -2.29414,6.60624 -3.80319,15.6083 2.20015,19.15243 5.15715,3.04794 11.56953,-0.76081 16.06387,-4.73021 12.58497,-11.10964 22.93692,-24.7616 30.2707,-39.89736 4.28277,-8.84139 6.05981,-22.15783 -2.88651,-26.14142 -4.28274,-1.90438 -9.26595,-0.53871 -13.60516,1.23808 -15.17997,6.2282 -28.2915,17.44651 -36.8382,31.51431 12.43925,3.78513 25.16995,-3.92216 35.9074,-11.27975 26.84827,-18.39634 53.69187,-36.792688 80.54015,-55.193766 -28.23041,40.866066 -51.01693,85.526716 -67.56496,132.417796 29.55145,-29.94547 59.13579,-59.92872 90.84978,-87.54451 -12.89064,16.14228 -21.60649,35.6255 -25.05717,56.03018 13.81662,-6.77162 25.8,-17.28113 34.3466,-30.12975 3.41315,-5.12716 6.36069,-11.53964 4.123,-17.28585 -2.76434,-7.08825 -12.41575,-9.17691 -19.42049,-6.28018 -7.0048,2.89672 -11.92683,9.21471 -16.51989,15.27279 22.97919,-3.61973 45.6105,-9.44626 67.48502,-17.38509 -11.969,14.46946 -20.32781,31.93489 -24.09334,50.36903 9.12494,-1.18137 17.82204,-5.46738 24.34264,-11.99329 6.5532,-6.56372 10.9442,-15.90602 9.5855,-25.10183 -1.3585,-9.19581 -9.628,-17.48432 -18.8609,-16.89836 -9.2332,0.58123 -16.57637,11.97912 -11.9081,20.00774 17.5588,-1.60667 34.8684,-5.95886 51.1109,-12.8439 -5.317,15.37203 -10.6293,30.73933 -15.9463,46.11136 15.3493,-8.40664 27.497,-22.55477 33.5286,-39.05147 2.3882,-6.53535 2.8818,-15.64611 -3.3566,-18.67514 -3.3425,-1.62558 -7.3338,-0.68048 -10.8267,0.58595 -12.2888,4.45142 -23.2237,12.60762 -31.0276,23.13602 11.8845,-2.51869 23.7689,-5.03738 35.6488,-7.55606 4.8798,-1.03488 10.1121,-2.04142 14.7334,-0.15122 6.0316,2.4667 9.2942,9.38482 9.4352,15.92964 0.1411,6.54481 -2.2189,12.84861 -4.546,18.95868 7.7993,-5.83599 15.9228,-12.06419 19.8906,-20.98592 3.9724,-8.92173 2.0215,-21.31669 -6.6898,-25.65943 -6.8542,-3.41653 -15.4762,-0.67575 -21.1081,4.53175 -5.6272,5.21222 -8.9275,12.41859 -12.082,19.4265 17.7139,-4.74439 35.4326,-9.49351 53.1465,-14.23791 5.2653,-1.41292 11.2922,-2.71244 15.8382,0.31188 6.4406,4.29076 5.5334,14.07725 2.7126,21.30726 -2.8206,7.23 -6.8778,15.00343 -4.2969,22.3185 10.902,-6.07699 22.2552,-12.56981 28.9733,-23.12657 6.7178,-10.55675 6.906,-26.45331 -2.99,-34.08025 -7.0377,-5.42486 -16.816,-5.22167 -25.5743,-3.82293 -21.6958,3.46851 -42.4279,12.85806 -59.3849,26.89751 81.579,-10.21179 159.134,-53.237408 241.0845,-46.673703"
   id="path2-7"
   style="stroke:#00ff00;stroke-opacity:1"
   inkscape:label="path5" /><path
   class="st0"
   d="m 1205.9389,101.68891 c -21.2632,14.65376 -36.1565,38.32376 -40.2088,63.91703 19.7918,-10.95842 36.4526,-27.56381 47.5144,-47.36835 2.3741,-4.24822 4.5555,-9.07767 3.5165,-13.83624 -1.8335,-8.401929 -13.2901,-11.516032 -20.906,-7.593868 -7.6159,3.922158 -11.8657,12.267378 -14.6582,20.399948 30.2567,-9.75814 59.0511,-24.071663 85.1238,-42.321517 -24.023,31.249697 -39.9598,68.722857 -45.841,107.769607 22.4951,-29.14212 44.9853,-58.28896 67.4804,-87.431077 -10.3285,25.201057 -20.6523,50.397387 -30.9806,75.598447 20.6192,-22.76745 41.2385,-45.53487 61.8578,-68.30702 -4.5131,17.40872 -9.0215,34.81744 -13.5347,52.22616 -1.7252,6.65822 -2.1766,15.91546 4.2922,18.15535 5.0068,1.72954 9.9289,-2.5565 13.4218,-6.55427 9.1484,-10.46224 17.6105,-21.53407 25.3063,-33.11625 4.7716,-7.17803 9.4445,-15.48545 7.8087,-23.96297 -2.534,-13.155782 -19.618,-18.854729 -32.1748,-14.356055 -12.5568,4.498667 -21.3668,15.655555 -29.4809,26.287915 4.1087,0.11341 8.2176,0.2221 12.3311,0.33551"
   id="path3-2"
   style="stroke:#00ff00;stroke-opacity:1"
   inkscape:label="path6" /></svg>
