<?xml version="1.0" encoding="UTF-8" standalone="no"?>
<!-- Generator: Adobe Adobe Illustrator 24.2.0, SVG Export Plug-In . SVG Version: 6.00 Build 0)  -->

<svg
   version="1.1"
   id="Layer_2"
   x="0px"
   y="0px"
   width="1500"
   height="250"
   viewBox="0 0 1500 250"
   xml:space="preserve"
   sodipodi:docname="06_binary.svg"
   inkscape:version="1.3.2 (091e20e, 2023-11-25)"
   xmlns:inkscape="http://www.inkscape.org/namespaces/inkscape"
   xmlns:sodipodi="http://sodipodi.sourceforge.net/DTD/sodipodi-0.dtd"
   xmlns="http://www.w3.org/2000/svg"
   xmlns:svg="http://www.w3.org/2000/svg"><defs
   id="defs4" /><sodipodi:namedview
   id="namedview4"
   pagecolor="#505050"
   bordercolor="#eeeeee"
   borderopacity="1"
   inkscape:showpageshadow="0"
   inkscape:pageopacity="0"
   inkscape:pagecheckerboard="0"
   inkscape:deskcolor="#505050"
   inkscape:zoom="0.56531554"
   inkscape:cx="752.67699"
   inkscape:cy="86.677256"
   inkscape:window-width="1680"
   inkscape:window-height="997"
   inkscape:window-x="0"
   inkscape:window-y="25"
   inkscape:window-maximized="0"
   inkscape:current-layer="Layer_2"
   showguides="true"><sodipodi:guide
     position="598.96381,390.67882"
     orientation="1,0"
     id="guide1"
     inkscape:locked="false" /></sodipodi:namedview>
<style
   type="text/css"
   id="style1">
	.st0{fill:none;stroke:#000000;stroke-miterlimit:10;}
	.st1{fill:none;stroke:#000000;stroke-width:1.0209;stroke-miterlimit:10;}
</style>
<path
   class="st1"
   d="M 71.898543,76.466837 C 59.493969,110.81121 47.095227,145.15563 34.690654,179.50003 47.462639,149.40713 67.221311,122.30019 91.972138,100.94356 84.2273,124.21307 76.488292,147.48841 68.743453,170.75791 81.532936,149.26134 96.81266,129.24605 114.18022,111.24864 c 2.49608,-2.5894 6.81757,-5.16712 9.23198,-2.49609 1.46383,1.62128 1.01477,4.14068 0.4724,6.25768 -3.56333,13.93837 -7.12081,27.8826 -10.68413,41.82098 -1.1314,4.43228 -2.26864,9.08036 -1.22472,13.53597 1.04392,4.45563 5.03881,8.58464 9.59358,8.11809 4.08236,-0.41408 6.93418,-4.10569 9.20283,-7.52324 6.53179,-9.86766 12.41621,-20.16691 17.595,-30.8044 4.00656,-8.22305 7.4241,-18.6156 1.97703,-25.96386 -4.67722,-6.31018 -14.24164,-7.14998 -21.45576,-4.04155 -7.21414,3.10843 -12.6262,9.22033 -17.7933,15.13977 15.74629,-10.04264 31.83665,-19.5429 48.23029,-28.483286 4.57808,-2.496079 10.03679,-4.992156 14.77819,-2.834332 7.31909,3.324218 6.38015,13.926708 3.93655,21.584078 -6.65424,20.84924 -15.63547,40.95782 -26.72203,59.83003 1.423,-0.47237 2.84599,-0.95059 4.26899,-1.42298"
   id="path1"
   style="stroke:#00ff00;stroke-opacity:1" />
<path
   class="st1"
   d="m 201.15221,105.6266 c -15.44304,11.50065 -26.5354,28.7049 -30.65276,47.51298 -0.94479,4.31565 -0.39657,10.39255 3.96574,11.07488 2.50773,0.39075 4.77052,-1.43466 6.59592,-3.20175 8.9404,-8.66626 16.36447,-18.88387 21.84653,-30.0579 2.74102,-5.58702 4.62474,-13.20355 -0.0583,-17.29759 -3.2484,-2.84017 -8.40968,-2.38528 -12.07798,-0.11662 -3.66829,2.26861 -6.19353,5.95441 -8.60214,9.52939 21.11754,-15.01144 42.2292,-30.02873 63.34673,-45.04019 -17.85746,29.81881 -29.83047,63.14261 -35.03256,97.5045 10.06012,-22.86128 23.64273,-44.16541 40.12385,-62.93849 -3.72662,20.45267 -11.25566,40.1997 -22.09145,57.9405 11.03406,-25.63728 27.58516,-48.8893 48.19529,-67.70903 -7.26662,28.66991 -14.53323,57.33981 -21.80569,86.00971 -0.48403,1.90705 -0.93893,4.0532 0.07,5.73862 1.00894,1.68546 4.1407,1.90124 4.61892,-0.006"
   id="path2"
   style="stroke:#00ff00;stroke-opacity:1" />
<path
   class="st1"
   d="m 309.6616,55.582599 c -13.1569,50.172341 -28.66989,99.726471 -46.46904,148.446651 9.35445,-36.00653 29.32893,-69.1787 56.77411,-94.2911 -9.72187,19.11131 -16.68522,39.62233 -20.59847,60.70486 17.24511,-14.40495 28.8682,-35.37667 31.94162,-57.63725 -9.26697,0.23911 -18.21901,5.75613 -22.59882,13.93255 11.44814,-8.18223 24.45923,-14.17748 38.1235,-17.56003 -0.32076,14.80151 -0.64151,29.59718 -0.96227,44.39868 -0.0292,1.32972 0.0642,2.89849 1.18972,3.60999 1.34135,0.84564 3.04428,-0.17495 4.27482,-1.17222 7.1908,-5.83779 14.09001,-12.55619 17.56586,-21.14085 3.47585,-8.58464 2.76434,-19.42626 -3.84909,-25.91722 -6.60761,-6.49096 -19.49041,-5.97774 -23.87021,2.18115 14.28248,-21.041689 34.13446,-38.263459 56.97822,-49.431657 4.49062,7.744839 1.90705,17.495871 -0.87478,26.004698 -13.32603,40.747889 -28.69323,80.836769 -46.00833,120.056679"
   id="path3"
   style="stroke:#00ff00;stroke-opacity:1" />
<path
   class="st1"
   d="m 408.09922,112.36835 c -6.99251,15.29139 -13.99088,30.57697 -20.98338,45.86835 -1.30638,2.85185 -2.5894,6.26936 -0.99145,8.96372 2.83436,4.77637 10.22343,1.69711 14.27665,-2.09948 8.45633,-7.91399 15.59465,-17.23928 21.03002,-27.47437 3.47003,-6.53179 6.24603,-14.44577 3.10846,-21.14667 -4.23986,-9.03956 -17.43173,-10.44504 -26.04554,-5.4004 -8.6138,5.04465 -13.7051,14.31162 -18.3765,23.13538 16.51612,-6.58429 33.03222,-13.16274 49.5483,-19.74701 2.32697,-0.92727 5.19045,-1.78459 7.13834,-0.20997 1.98869,1.60963 1.67958,4.67142 1.18972,7.18498 -1.80791,9.22034 -3.61,18.44065 -5.4179,27.66098 -1.0381,5.30707 -1.04974,12.51538 4.09986,14.17749 3.92493,1.27138 7.83233,-1.9887 10.25258,-5.33039 4.58975,-6.32186 7.37159,-14.23582 6.32184,-21.969 -1.05557,-7.739 -6.45597,-15.06394 -13.98502,-17.14013 -7.52906,-2.07617 -16.62108,2.22781 -18.70891,9.75103 32.84557,-23.89936 62.23863,-52.528428 87.00113,-84.726663 -39.26074,53.823131 -61.40467,117.916333 -83.00041,180.942303 19.25128,-42.60828 46.53901,-81.56575 80.00861,-114.21305 -8.61963,14.23582 -14.44577,30.14539 -17.0643,46.57985 16.04371,-9.51776 29.4922,-23.36283 38.53758,-39.68064 1.2422,-2.23949 2.31528,-5.28377 0.53653,-7.12666 -1.9362,-2.00035 -5.27209,-0.65902 -7.65736,0.77567 -8.9229,5.37704 -17.85165,10.75409 -26.77453,16.13701 1.49883,-2.49608 2.99178,-4.99798 4.49062,-7.49408"
   id="path4"
   style="stroke:#00ff00;stroke-opacity:1" />
<style
   type="text/css"
   id="style1-4">
	.st0{fill:none;stroke:#000000;stroke-width:1.0061;stroke-miterlimit:10;}
</style><path
   class="st0"
   d="m 668.18175,120.73266 c -18.32275,13.66028 -28.34795,37.65909 -25.19665,60.29416 11.1724,-3.22042 18.51164,-13.65106 24.4595,-23.63943 3.77789,-6.33948 7.45903,-13.08901 7.85524,-20.45587 0.39622,-7.36689 -3.49683,-15.48934 -10.56886,-17.59023 -7.07201,-2.10086 -15.80263,4.96194 -13.42992,11.95103 19.29486,-2.42798 38.04606,-9.07614 54.5628,-19.35014 -9.66585,21.63991 -16.47065,44.55601 -20.17944,67.96508 13.42992,-9.34335 23.97576,-22.76867 29.86374,-38.02763 1.92117,-4.98037 3.3356,-10.65642 1.19785,-15.54464 -3.61663,-8.26987 -15.79339,-9.40785 -23.36299,-4.492 -7.57419,4.91587 -11.61008,13.62803 -15.26358,21.88411 13.863,-6.84166 28.14065,-13.80312 43.54244,-15.10233 2.56159,-0.21654 5.24758,-0.2488 7.56959,0.84772 7.5097,3.55213 5.68988,14.66925 2.34966,22.2711 -3.34482,7.60184 -6.3625,18.05553 0.37779,22.90688 10.6518,-8.5371 18.60379,-20.39137 22.45998,-33.48496 2.05943,-6.98911 2.72287,-15.2682 -1.92579,-20.87973 -6.11833,-7.38992 -18.59918,-5.9018 -25.7403,0.50218 -7.14112,6.40397 -10.29244,16.02376 -13.1489,25.18283 15.91322,-5.50558 31.83101,-11.00656 47.74421,-16.51213 3.89306,-1.34528 8.19154,-2.69059 12.02933,-1.18865 7.81839,3.06376 7.1872,14.43891 3.86542,22.15132 -3.32177,7.71242 -7.91513,16.68719 -3.59359,23.88822 8.04413,-6.90156 16.32785,-14.10717 20.81061,-23.71316 4.4828,-9.60595 4.09118,-22.34941 -3.79631,-29.43066 -5.62534,-5.05405 -13.76164,-6.2381 -21.3128,-5.82807 -17.42436,0.94447 -34.30044,9.48618 -45.3853,22.96679 74.7745,-6.78176 140.43136,-51.51286 212.83781,-71.369798 4.45512,-1.220901 9.68428,-2.211446 13.32858,0.631183 3.64423,2.842629 1.78293,10.656403 -2.71823,9.610573"
   id="path2-0"
   style="stroke:#00ff00;stroke-opacity:1"
   inkscape:label="path5" /><path
   class="st0"
   d="m 837.56466,116.6507 c -20.45128,11.61931 -35.47987,32.37465 -40.12851,55.43357 -1.61253,7.99806 -0.92144,18.25364 6.4869,21.67216 7.22406,3.33561 15.25899,-2.35423 20.83827,-8.02108 9.60596,-9.76263 18.09238,-20.62174 25.24272,-32.30093 7.30701,-11.93719 12.56375,-29.03443 2.32664,-38.5805 -7.62029,-7.10888 -20.44666,-5.44109 -28.7442,0.86153 -8.30213,6.30262 -13.16269,16.01456 -17.73763,25.37635 13.39306,1.7461 25.9246,-6.19668 37.09239,-13.7893 13.13506,-8.93332 26.27476,-17.86663 39.40981,-26.79534 -8.79974,25.66198 -17.5994,51.32857 -26.39915,76.99056 13.13972,-26.33924 31.2597,-50.1814 53.1208,-69.88629 -4.38607,22.40471 -13.18575,43.93404 -25.74953,62.99393 10.85913,-14.40663 21.71363,-28.81789 32.57275,-43.22453 2.42334,8.35743 -2.3174,16.87608 -4.76383,25.2243 -2.44643,8.3482 -0.69573,20.00437 7.80912,21.84262 8.33444,1.80142 14.54491,-7.31619 18.15689,-15.03781 2.82883,-6.04463 5.71292,-12.32422 5.77747,-19.00001 0.0644,-6.67121 -3.5107,-13.8722 -9.88701,-15.83027 -6.37634,-1.95805 -14.39285,4.06814 -12.60984,10.49976 25.39474,-3.15133 49.74366,-14.25462 68.77591,-31.35645 -12.14449,25.84166 -21.60764,52.9503 -28.17749,80.73618 8.94257,-24.92941 22.76407,-48.09894 40.45106,-67.81304 -3.08681,21.87487 -10.13128,43.18768 -20.68158,62.59773 12.71579,-19.45151 27.00248,-37.87102 42.67628,-55.03275 -3.4417,19.0092 -4.4231,38.45613 -2.9211,57.71412 12.1493,-8.74902 21.3913,-21.46484 25.9569,-35.72405 2.7182,-8.49105 3.3402,-18.97237 -3.0637,-25.17823 -4.7363,-4.58876 -13.1029,-5.15543 -17.9173,-0.64501 -4.8146,4.51044 -4.3629,13.62343 1.267,17.06038 8.7857,5.36736 21.5661,-4.48279 29.9881,1.44205 11.0294,7.75387 -1.5342,29.79461 9.7672,37.14768 4.1325,2.69058 9.8454,1.65396 13.886,-1.17024 4.0404,-2.82419 6.7865,-7.10425 9.4262,-11.26914 7.4038,-11.67921 14.6416,-27.62465 5.6991,-38.17508 -6.8232,-8.04875 -19.7692,-7.60184 -29.1958,-2.86107 -9.4261,4.74079 -16.7838,12.72502 -25.5191,18.64525 62.9388,-20.04122 125.8727,-40.08244 188.8115,-60.123667"
   id="path1-6"
   style="stroke:#00ff00;stroke-opacity:1"
   inkscape:label="path6" /><path
   class="st0"
   d="m 1153.3959,110.70745 c -12.9555,16.71023 -24.1968,34.74273 -33.5078,53.72891 -1.9582,3.98982 -3.8657,8.17314 -3.9486,12.61906 -0.084,4.44133 2.1378,9.23278 6.2934,10.80844 5.5795,2.1193 11.389,-2.12391 15.8534,-6.08147 8.5324,-7.56499 17.1848,-15.26359 23.3124,-24.88336 6.1274,-9.6198 9.5183,-21.58003 6.5145,-32.58197 -3.0038,-11.00195 -13.5957,-20.23012 -24.957,-19.2488 -11.3613,0.98133 -20.5435,14.38823 -15.4666,24.60235 20.2304,-12.29657 40.4603,-24.59313 60.6905,-36.894296 3.2021,-1.94423 7.3762,-3.888459 10.44,-1.727692 3.2157,2.271338 2.5431,7.145734 1.4743,10.932838 -6.9615,24.60232 -15.9777,48.62876 -26.9153,71.73837 12.2874,-28.38482 29.1635,-54.77935 49.776,-77.842885 -5.9571,26.431375 -13.9276,52.415865 -23.8099,77.644765 16.5766,-22.48302 33.1533,-44.96606 49.7301,-67.44448 -10.4814,21.33124 -18.0743,44.08149 -22.5015,67.43527 -1.4883,7.85063 -0.9862,18.51625 6.7171,20.64938 6.1505,1.70465 11.753,-3.75485 15.8119,-8.67533 6.4592,-7.83679 12.9231,-15.67361 19.3823,-23.51041 4.9713,-6.0308 10.0344,-12.21364 12.7528,-19.54366 2.7183,-7.33002 2.709,-16.15279 -2.0041,-22.38628 -6.0539,-8.01189 -18.0973,-9.32032 -27.4772,-5.74515 -9.385,3.57516 -16.7334,10.93744 -23.7732,18.09699 l 87.6423,-58.852087"
   id="path3-3"
   style="stroke:#00ff00;stroke-opacity:1"
   inkscape:label="path7" /><path
   class="st0"
   d="m 1306.2529,100.85731 c -6.8462,27.34358 -13.6972,54.6872 -20.5434,82.03081 12.5408,-16.13435 23.6164,-33.40666 33.0472,-51.5313 -1.1195,9.70734 -2.239,19.41926 -3.3539,29.12659 6.5605,-1.48813 12.5867,-5.21993 16.8392,-10.43066 2.99,-3.66271 5.16,-8.31596 4.6027,-13.01068 -0.5576,-4.69471 -4.5289,-9.13602 -9.2514,-9.02546 -4.727,0.11057 -8.5832,6.0907 -5.9064,9.98838 4.538,-2.79655 9.2099,-5.6438 14.4528,-6.61131 5.2428,-0.9629 11.2553,0.36397 14.4526,4.63021 5.6301,7.51893 -0.2486,18.28129 1.3545,27.53711 6.2105,-6.04464 12.633,-12.42096 15.3697,-20.64477 2.7365,-8.22381 0.4514,-18.82031 -7.3116,-22.67192 -7.5788,-3.75947 -17.3507,0.66341 -21.6584,7.94738 16.8761,-13.7985 33.7522,-27.6016 50.6237,-41.4001 -10.5504,37.58997 -19.9814,75.48861 -28.2789,113.64066"
   id="path4-2"
   style="stroke:#00ff00;stroke-opacity:1"
   inkscape:label="path8" /></svg>
