<?xml version="1.0" encoding="UTF-8" standalone="no"?>
<!-- Generator: Adobe Adobe Illustrator 24.2.0, SVG Export Plug-In . SVG Version: 6.00 Build 0)  -->

<svg
   version="1.1"
   id="Layer_2"
   x="0px"
   y="0px"
   width="1500"
   height="250"
   viewBox="0 0 1500 250"
   xml:space="preserve"
   sodipodi:docname="07_binary.svg"
   inkscape:version="1.3.2 (091e20e, 2023-11-25)"
   xmlns:inkscape="http://www.inkscape.org/namespaces/inkscape"
   xmlns:sodipodi="http://sodipodi.sourceforge.net/DTD/sodipodi-0.dtd"
   xmlns="http://www.w3.org/2000/svg"
   xmlns:svg="http://www.w3.org/2000/svg"><defs
   id="defs4" /><sodipodi:namedview
   id="namedview4"
   pagecolor="#505050"
   bordercolor="#eeeeee"
   borderopacity="1"
   inkscape:showpageshadow="0"
   inkscape:pageopacity="0"
   inkscape:pagecheckerboard="0"
   inkscape:deskcolor="#505050"
   inkscape:zoom="0.87649966"
   inkscape:cx="966.91424"
   inkscape:cy="-67.313204"
   inkscape:window-width="1680"
   inkscape:window-height="997"
   inkscape:window-x="0"
   inkscape:window-y="25"
   inkscape:window-maximized="0"
   inkscape:current-layer="Layer_2"
   showguides="true"><sodipodi:guide
     position="600.3858,481.36254"
     orientation="1,0"
     id="guide1"
     inkscape:locked="false" /><sodipodi:guide
     position="-92.413042,99.400968"
     orientation="0,-1"
     id="guide2"
     inkscape:locked="false" /></sodipodi:namedview>
<style
   type="text/css"
   id="style1">
	.st0{fill:none;stroke:#000000;stroke-miterlimit:10;}
	.st1{fill:none;stroke:#000000;stroke-width:1.0209;stroke-miterlimit:10;}
</style>
<path
   class="st1"
   d="m 66.862312,103.27234 c -7.890592,11.09022 -14.335028,23.2063 -19.120904,35.95055 -0.659809,1.74895 -1.292502,3.58828 -1.093655,5.44569 0.198846,1.85741 1.48231,3.7374 3.335198,3.995 1.852889,0.2576 3.51145,-1.09817 4.849145,-2.40423 9.657616,-9.43617 16.956188,-21.26754 21.064177,-34.1293 1.039425,-3.24933 1.748945,-7.18107 -0.483559,-9.76608"
   id="path1"
   style="stroke:#00ff00;stroke-opacity:1" />
<path
   class="st1"
   d="M 55.622963,112.50967 C 82.33619,95.368193 107.45412,75.732093 130.37571,57.365903 115.73789,93.131173 101.09556,128.90096 86.457736,164.66621 93.159767,134.72625 110.30125,107.2312 134.23514,88.033473 131.7134,109.9337 125.12435,131.3549 114.89731,150.88253 c 5.25588,-18.89493 15.67725,-36.32113 29.8315,-49.8924 -0.15817,20.06542 -3.70577,40.10373 -10.44396,59.00771"
   id="path2"
   style="stroke:#00ff00;stroke-opacity:1" />
<path
   class="st1"
   d="m 176.7386,100.76416 c -17.88716,12.42791 -29.37959,33.60056 -30.05295,55.36973 21.40311,-9.77512 39.06431,-27.49505 48.77164,-48.92529 2.5624,-5.65357 3.91365,-13.688777 -1.40549,-16.888397 -2.91943,-1.75798 -6.64779,-1.11625 -9.9107,-0.13558 -11.22127,3.38039 -21.36244,10.263197 -28.65197,19.437247 13.18714,-4.35202 26.3788,-8.70405 39.56594,-13.056077 3.35328,-1.10721 7.30761,-2.13308 10.18186,-0.0813 3.51144,2.50818 3.03692,7.773087 2.19182,12.003097 -3.32616,16.60369 -6.65231,33.20738 -9.97849,49.80654 12.92955,-11.87656 22.46063,-27.41824 27.18323,-44.32922 1.22924,-4.3927 1.83029,-9.87002 -1.64951,-12.82108 -2.77483,-2.350007 -6.90089,-1.938757 -10.44398,-1.12078 -11.40655,2.63472 -22.12619,8.18435 -30.86188,15.98004 13.40858,-5.34627 26.81265,-10.69253 40.22123,-16.038787 3.6651,-1.45971 8.10752,-2.8426 11.29359,-0.51971 4.00856,2.919427 2.82904,9.092707 1.22923,13.792717 -2.92847,8.60463 -5.85694,17.20475 -8.7854,25.80937 -0.85414,2.50818 -1.55011,5.69424 0.42028,7.46579 2.40424,2.16019 6.15973,0.0723 8.54589,-2.10596 10.70156,-9.76156 19.22032,-21.89572 24.76995,-35.27267 2.45396,-5.91568 3.62444,-14.172327 -1.87549,-17.453297 -2.70701,-1.61789 -6.12357,-1.30154 -9.21472,-0.67337 -12.2381,2.48558 -23.57688,9.192127 -31.65276,18.714167 12.31493,-2.76577 24.62986,-5.53155 36.94479,-8.30184 4.90789,-1.1027 10.688,-1.997507 14.42994,1.36933 3.44365,3.10472 3.50692,8.38771 3.31712,13.01541 -0.44741,10.76483 -0.89934,21.53417 -1.34674,32.299 -0.12654,3.04146 0.30731,6.92348 3.2177,7.80474 2.42231,0.7321 4.75424,-1.25636 6.47155,-3.11828 9.92877,-10.76935 18.42494,-22.8538 25.2038,-35.83305 4.60059,-8.808 7.84087,-20.996387 0.37509,-27.549287 -5.06606,-4.44693 -12.71262,-3.88203 -19.31975,-2.54433 -20.11965,4.07635 -39.24507,12.99281 -55.30645,25.782257 14.46156,3.12731 29.29371,-1.75346 43.44345,-6.08742 76.46102,-23.409657 157.37801,-32.149867 237.07482,-25.615047"
   id="path3"
   style="stroke:#00ff00;stroke-opacity:1" />
<path
   class="st1"
   d="m 329.34428,98.486473 c -9.20117,10.882327 -15.8309,23.924847 -19.20225,37.767277 -1.00327,4.11251 -1.22019,9.44973 2.48107,11.51051 3.9001,2.16924 8.50069,-1.2925 11.34329,-4.73616 6.78337,-8.21147 11.83136,-17.84648 14.71916,-28.09612 1.48683,-5.27395 2.04722,-11.82233 -2.11952,-15.388007 -3.99953,-3.42107 -10.53887,-1.94779 -14.22657,1.807687 -3.6877,3.75549 -5.20165,9.0882 -6.41281,14.20849 19.08476,-17.222817 38.17403,-34.450157 57.25878,-51.672977 -5.26492,33.40622 -16.72571,65.474737 -28.12775,97.312797 11.00887,-24.0243 24.94169,-46.71087 41.39624,-67.386397 -3.44366,16.657917 -8.41031,32.999487 -14.82763,48.753557 14.07744,-24.44005 31.67083,-46.855477 52.06616,-66.333397 -10.73319,22.9713 -18.47013,47.334517 -22.95773,72.289767 -0.52424,2.91039 -0.99424,5.97894 -0.0272,8.77635 0.96712,2.79742 3.86848,5.15646 6.74723,4.46953"
   id="path4"
   style="stroke:#00ff00;stroke-opacity:1" />
<style
   type="text/css"
   id="style1-1">
	.st0{fill:none;stroke:#000000;stroke-width:1.0061;stroke-miterlimit:10;}
</style><path
   class="st0"
   d="m 684.33558,100.68059 c 5.1208,-8.006397 6.9279,-18.058645 4.91498,-27.345243 -32.77889,16.519113 -51.44677,56.966853 -42.76116,92.631343 8.54976,4.05053 17.71286,-4.10817 23.17121,-11.83466 7.38071,-10.45976 13.69938,-21.66872 18.82841,-33.39635 3.68418,-8.43038 6.46687,-19.09597 0.53925,-26.135012 -5.75472,-6.833223 -17.16538,-5.989362 -24.26205,-0.555714 -7.09669,5.433649 -10.87965,14.036916 -14.20158,22.331466 18.95602,-5.70533 36.80884,-15.06602 52.27415,-27.423451 -4.47864,24.743671 -6.38041,49.952511 -5.66416,75.087241 19.11244,-17.43706 28.25084,-45.12809 23.27824,-70.518039 -17.08718,2.708592 -30.96356,18.964259 -30.95122,36.265479 25.5752,-11.28306 47.8655,-28.72835 69.8512,-45.992531 -7.58653,21.203571 -15.17716,42.403031 -22.7637,63.606611 9.78057,-19.89458 22.53317,-38.32369 37.70623,-54.48467 -4.68035,21.99804 -9.36481,43.99608 -14.04516,65.99411 -0.34166,1.60541 -0.65862,3.38369 0.15643,4.80385 0.81916,1.42427 3.29311,1.83591 3.97643,0.34165"
   id="path1-7"
   style="stroke:#00ff00;stroke-opacity:1" /><path
   class="st0"
   d="m 807.21834,92.834733 c -17.87341,18.108037 -28.65426,43.036957 -29.61339,68.459847 18.70493,-11.3448 32.95179,-29.83156 39.15521,-50.80462 1.4078,-4.75855 2.36691,-10.08517 0.1523,-14.526767 -3.91469,-7.84997 -15.92635,-8.138118 -22.80897,-2.700354 -6.88262,5.441884 -9.84231,14.345651 -12.2751,22.776031 22.5908,-5.47481 43.36215,-18.194477 58.50639,-35.829135 -6.64388,26.040345 -13.29185,52.076565 -19.93573,78.116925 10.18809,-24.7972 23.9204,-48.13719 40.65356,-69.081427 -2.70858,20.676677 -7.99405,41.015807 -15.69583,60.395807 12.15985,-20.2568 26.4067,-39.26222 42.4442,-56.612836 -7.5536,20.203286 -11.45595,41.764986 -11.46418,63.334916 14.16042,-9.4636 25.40642,-23.22472 31.86094,-38.98642 3.0626,-7.47126 4.23166,-17.766377 -2.59744,-22.08036 -7.62771,-4.820305 -16.98016,2.469843 -23.01069,9.18368 17.72522,-0.46103 35.40105,-2.90206 52.59113,-7.269557 -15.08661,13.864037 -22.88719,35.256967 -20.26504,55.579637 12.36567,-10.18399 20.80429,-25.01949 23.24119,-40.85116 0.82328,-5.35132 0.81917,-11.33245 -2.57275,-15.551757 -3.39191,-4.219307 -11.22542,-4.816185 -13.65821,0.0165 -2.22285,4.421007 1.69184,9.924637 6.45452,11.262467 4.76266,1.33783 9.80526,-0.17701 14.53501,-1.62598 4.72973,-1.44486 9.84642,-2.82797 14.535,-1.24315 -4.18639,14.25098 -8.37276,28.50196 -12.55914,42.75292 -0.9797,3.33017 -1.49013,7.84587 1.60952,9.41009 3.09965,1.56423 6.43805,-1.54364 8.47978,-4.35104 7.34778,-10.10163 14.01635,-20.69724 19.95215,-31.69215 2.88971,-5.35544 5.57365,-12.0981 2.26814,-17.20655 -3.75,-5.800007 -13.14364,-5.001427 -18.12035,-0.20994 -4.97262,4.79149 -6.68504,11.94991 -8.16694,18.69669 15.4859,-7.71825 30.97176,-15.43238 46.45767,-23.150627 -2.94736,12.682627 -5.89464,25.369367 -8.8379,38.051997 -0.76157,3.27253 -1.43251,7.01845 0.54333,9.73117 2.09525,2.87736 6.45864,3.23549 9.7024,1.77417 3.24368,-1.46133 5.63528,-4.28929 7.91178,-7.02671 7.64,-9.19603 15.564,-19.0013 17.4823,-30.80301 1.9182,-11.801717 -4.7956,-25.89215 -16.6385,-27.518128 -10.90021,-1.498369 -20.1868,7.51243 -27.04886,16.115701 -3.62241,4.540387 -7.12961,11.208957 -3.38777,15.650557 4.0711,4.82853 11.86342,1.56834 17.07892,-1.99234 27.42351,-18.725501 54.13471,-38.488336 80.06391,-59.230873 -41.4645,59.127963 -70.0364,127.258493 -83.14708,198.286973 1.0126,-1.66303 2.02521,-3.32194 3.0379,-4.98496"
   id="path2-5"
   style="stroke:#00ff00;stroke-opacity:1" /><path
   class="st0"
   d="m 1067.4159,101.06753 c -7.7842,12.85963 -15.5681,25.72338 -23.3564,38.58301 -3.326,5.49128 -6.2981,13.48121 -1.2925,17.49882 4.7544,3.8159 11.6905,-0.18523 16.0621,-4.43337 6.1046,-5.93173 11.5342,-12.55501 16.1485,-19.7052 3.0709,-4.75856 5.8289,-9.88759 6.6235,-15.49413 0.7943,-5.60654 -0.6751,-11.7976 -4.9315,-15.52706 -6.6192,-5.795887 -17.5358,-3.486587 -23.8793,2.6098 -6.3433,6.09639 -9.2536,14.83962 -11.9416,23.21649 21.43,-15.5888 42.8558,-31.181717 64.2857,-46.770525 -6.3803,30.304935 -15.3993,60.050035 -26.9253,88.794845 10.4515,-27.13529 25.0359,-52.67344 43.0987,-75.461827 -1.0414,20.158007 -4.3345,40.196647 -9.8052,59.626057 11.744,-18.672 23.4881,-37.34399 35.2321,-56.015977 -8.1668,17.087177 -13.1147,35.701537 -14.5185,54.587577 -0.3375,4.54039 0.3458,10.3404 4.6928,11.69881 4.0176,1.2555 7.7635,-2.41221 10.2992,-5.76708 8.0722,-10.66971 15.2307,-22.03097 21.3641,-33.91502 4.4911,-8.70206 7.9076,-20.67667 0.5887,-27.184697 -4.878,-4.338686 -12.6744,-3.791203 -18.3097,-0.48985 -5.6313,3.301347 -9.6037,8.767927 -13.4031,14.078077"
   id="path3-5"
   style="stroke:#00ff00;stroke-opacity:1" /><path
   class="st0"
   d="m 1199.9558,79.769281 c -11.8347,26.641339 -20.6685,54.620499 -26.271,83.229479 9.3484,-25.77278 23.0108,-49.97309 40.2503,-71.287804 -5.4955,20.367944 -10.995,40.735884 -16.4904,61.103834 13.5142,-20.27739 27.0324,-40.55477 40.5467,-60.832152 -1.2721,19.729902 -5.5737,39.262212 -12.7075,57.703692 9.8053,-21.47115 23.41,-41.19693 39.9908,-57.99184 -5.2155,22.29442 -10.3856,45.96372 -3.1655,67.69007 13.189,-11.85111 23.2124,-27.19705 28.7613,-44.03724 1.7783,-5.40072 2.9844,-11.74409 -0.2182,-16.445017 -3.6718,-5.388364 -11.8099,-5.993476 -17.651,-3.09553 -5.8413,2.89795 -9.9247,8.348057 -13.7817,13.604697 61.1408,-34.853552 129.5389,-56.913337 199.5218,-64.355788"
   id="path4-4"
   style="stroke:#00ff00;stroke-opacity:1" /></svg>
