<?xml version="1.0" encoding="UTF-8" standalone="no"?>
<!-- Generator: Adobe Adobe Illustrator 24.2.0, SVG Export Plug-In . SVG Version: 6.00 Build 0)  -->

<svg
   version="1.1"
   id="Layer_2"
   x="0px"
   y="0px"
   width="1500"
   height="250"
   viewBox="0 0 1500 250"
   xml:space="preserve"
   sodipodi:docname="08_binary.svg"
   inkscape:version="1.3.2 (091e20e, 2023-11-25)"
   xmlns:inkscape="http://www.inkscape.org/namespaces/inkscape"
   xmlns:sodipodi="http://sodipodi.sourceforge.net/DTD/sodipodi-0.dtd"
   xmlns="http://www.w3.org/2000/svg"
   xmlns:svg="http://www.w3.org/2000/svg"><defs
   id="defs3" /><sodipodi:namedview
   id="namedview3"
   pagecolor="#505050"
   bordercolor="#eeeeee"
   borderopacity="1"
   inkscape:showpageshadow="0"
   inkscape:pageopacity="0"
   inkscape:pagecheckerboard="0"
   inkscape:deskcolor="#505050"
   inkscape:zoom="0.50293111"
   inkscape:cx="641.2409"
   inkscape:cy="135.20738"
   inkscape:window-width="1680"
   inkscape:window-height="997"
   inkscape:window-x="0"
   inkscape:window-y="25"
   inkscape:window-maximized="0"
   inkscape:current-layer="Layer_2"
   showguides="true"><sodipodi:guide
     position="600.11239,472.47157"
     orientation="1,0"
     id="guide1"
     inkscape:locked="false" /><sodipodi:guide
     position="553.62846,99.314835"
     orientation="0,-1"
     id="guide2"
     inkscape:locked="false" /></sodipodi:namedview>
<style
   type="text/css"
   id="style1">
	.st0{fill:none;stroke:#000000;stroke-miterlimit:10;}
	.st1{fill:none;stroke:#000000;stroke-width:1.0209;stroke-miterlimit:10;}
</style>
<path
   class="st1"
   d="M 82.436372,78.832662 C 62.58872,106.6683 51.491159,140.65723 51.100698,174.84374 71.235315,152.89795 85.578877,125.68329 92.306097,96.671556 c 0.602156,-2.596804 1.09141,-5.527612 -0.35283,-7.766877 -2.606207,-4.036332 -8.806538,-2.592101 -13.06868,-0.376353 -15.449084,8.025622 -28.687125,20.261634 -37.902946,35.033294 -3.349497,5.36767 -5.823985,13.23333 -0.983209,17.31201 4.285663,3.61294 10.772962,1.14316 15.693712,-1.54303 C 79.891318,126.10197 102.67919,110.46941 125.42001,94.865092 110.88829,115.96409 98.304144,138.40385 87.879305,161.80328 99.89892,146.83875 111.91383,131.8695 123.93343,116.90497 c -4.3421,13.30861 -8.68421,26.61722 -13.02635,39.93053 9.31462,-10.76827 18.62924,-21.53653 27.94384,-32.30008 -0.61626,7.87508 -1.22783,15.75017 -1.84409,23.62525 -0.28697,3.65998 -0.10821,8.19967 3.17544,9.8415 3.77758,1.88644 7.85155,-1.78766 10.48128,-5.09481 4.13041,-5.19831 8.37845,-10.63183 9.89325,-17.09561 1.5148,-6.46848 -0.5457,-14.28241 -6.44496,-17.33083 -5.89926,-3.04841 -14.82341,1.80648 -13.77433,8.36434 32.2389,-16.43701 64.47781,-32.873998 96.71672,-49.306293"
   id="path1"
   style="stroke:#00ff00;stroke-opacity:1" />
<path
   class="st1"
   d="m 183.96564,103.77042 c -11.95375,13.11573 -18.42693,31.07695 -17.58955,48.80293 0.15994,3.40124 0.92204,7.32937 3.94224,8.91004 4.4456,2.33337 9.27227,-2.21575 12.24072,-6.2615 6.08271,-8.30317 12.3348,-16.97329 14.24476,-27.08764 1.90997,-10.11435 -1.88644,-22.09633 -11.28103,-26.29261 -10.03438,-4.483243 -22.44445,2.00406 -27.48282,11.76557 19.32548,-11.22456 38.65565,-22.449148 57.98113,-33.673729 1.87702,-1.091409 4.29035,-2.178114 6.08272,-0.945574 2.14518,1.472461 1.40659,4.770214 0.42339,7.183545 -11.52096,28.291958 -24.19917,56.118188 -37.98292,83.384598 10.17081,-22.79258 25.75631,-43.153 45.1006,-58.92198 -3.39183,13.90606 -6.77897,27.80741 -10.17081,41.71348 -0.47043,1.92877 -0.63508,4.52557 1.18079,5.32062 1.80178,0.79032 3.59883,-1.05379 4.68084,-2.6956 5.96041,-9.04177 11.05992,-18.65275 15.20916,-28.6542 1.48188,-3.5706 2.78027,-7.87978 0.63979,-11.10226 -3.08135,-4.63849 -10.54715,-2.96845 -14.63993,0.80443 -4.09279,3.7729 -6.88247,9.08881 -11.81263,11.67621 5.53702,2.42745 11.64327,-1.2937 16.89332,-4.29037 5.25006,-2.99668 12.73937,-5.04306 16.66751,-0.44692 2.06522,2.41804 2.28631,5.86163 2.41333,9.03706 0.33402,8.57133 0.66803,17.14265 1.00204,25.71869 11.84084,-10.18963 18.80799,-25.81278 18.46457,-41.43122 -0.0847,-3.87167 -0.92206,-8.27025 -4.22921,-10.28371 -2.8038,-1.70297 -6.41204,-1.06788 -9.53103,-0.0424 -10.01555,3.29775 -18.81268,10.16611 -24.4485,19.07613 36.50105,-21.12723 76.36101,-36.430475 117.62286,-45.152337 0.36694,1.505391 0.73858,3.010785 1.10552,4.516176"
   id="path2"
   style="stroke:#00ff00;stroke-opacity:1" />
<path
   class="st1"
   d="m 297.21816,105.16761 c -11.06463,11.24339 -18.59159,25.91627 -21.28247,41.45944 -0.5316,3.08605 -0.74329,6.66136 1.4113,8.93827 3.82933,4.05044 10.53774,0.29637 14.40001,-3.72115 7.9974,-8.3267 14.71991,-17.88123 19.85236,-28.22139 3.09546,-6.23796 5.4053,-14.36238 0.87501,-19.65007 -3.92813,-4.586741 -11.43157,-4.445615 -16.60166,-1.32663 -5.17008,3.11899 -8.5525,8.43961 -11.70442,13.58617 10.09083,-3.25542 20.17696,-6.51083 30.26779,-9.76624 2.77557,-0.89382 6.0545,-1.72179 8.41608,-0.005 2.72382,1.98523 2.51213,6.04037 2.01817,9.37106 -1.91937,12.9793 -3.84345,25.96332 -5.76283,38.9426 13.85901,-12.56061 23.54056,-29.65621 27.18643,-48.00317 1.04907,-5.27829 1.03026,-11.925537 -3.60352,-14.658763 -4.26685,-2.51683 -9.77564,0.03296 -13.44503,3.363609 -8.40197,7.635154 -12.55121,19.673584 -10.64125,30.865234 29.16226,-13.32742 55.20084,-32.502344 80.9995,-51.540852 -25.22942,32.502352 -50.80228,65.602162 -65.68213,103.966132 22.9243,-26.05739 46.19671,-52.42998 75.03908,-71.73193 -5.73461,10.95644 -11.4692,21.91286 -17.20381,32.86929 -2.03228,3.8811 -4.01751,8.79714 -1.45834,12.35363 3.18013,4.41267 10.09554,2.58268 14.86104,-0.0423 13.9578,-7.69162 26.16089,-18.54455 35.41905,-31.51445 3.02959,-4.23861 5.70637,-10.23667 2.44626,-14.30122 -2.77087,-3.4577 -8.08679,-3.1331 -12.38655,-2.04639 -11.65738,2.94963 -22.45387,9.22052 -30.78997,17.88594 25.54931,-15.9995 54.70217,-26.203234 84.65007,-29.623292"
   id="path3"
   style="stroke:#00ff00;stroke-opacity:1" />
<style
   type="text/css"
   id="style1-4">
	.st0{fill:none;stroke:#000000;stroke-width:1.0061;stroke-miterlimit:10;}
</style><path
   class="st0"
   d="m 616.21042,131.66494 c 22.18015,6.15004 45.49484,-3.25663 65.98141,-13.74885 20.48653,-10.49222 41.57303,-22.604594 64.58572,-22.163848 -24.75121,24.077838 -43.58904,54.195518 -54.41182,86.986248 12.39396,0.77539 24.37979,-5.58687 33.17026,-14.36099 8.79043,-8.77414 14.90785,-19.80096 20.91096,-30.67271 2.95467,-5.35017 6.00725,-11.35738 4.56664,-17.29522 -2.39965,-9.87599 -16.31985,-12.74493 -25.13887,-7.69674 -8.81902,5.04818 -13.60194,14.84663 -17.8747,24.06967 9.88818,-6.92952 20.61304,-14.13654 32.68457,-14.17736 12.07156,-0.0409 24.81649,10.83095 21.8333,22.53114 -0.6366,2.50164 -1.70996,5.69297 0.35911,7.23558 1.28963,0.96311 3.10975,0.59582 4.62787,0.0612 9.29646,-3.27702 16.77283,-12.03891 17.29111,-21.88225 0.5183,-9.84333 -6.84786,-19.85807 -16.61778,-21.16807 -9.76987,-1.31001 -19.96011,7.54165 -19.00105,17.35234 10.0678,2.72203 19.6785,-4.67273 28.87296,-9.59439 9.19447,-4.92167 23.59628,-5.78276 27.2406,3.98713 2.55062,6.83972 -2.22003,13.95289 -4.80739,20.78039 -2.58736,6.82748 -0.51015,17.35643 6.79075,17.21768 3.56272,-0.0694 6.40716,-2.8771 8.72516,-5.58279 6.78259,-7.9212 12.59802,-16.67083 17.2789,-25.9918 2.7098,-5.39099 4.90537,-12.31236 1.19981,-17.07078 -3.05665,-3.9259 -8.76596,-4.44419 -13.72438,-4.04018 -16.22601,1.31816 -31.82351,9.21486 -42.4953,21.50682 10.97379,-3.8239 22.1312,-7.68452 33.73753,-8.30075 11.60632,-0.61622 23.93089,2.44452 32.07652,10.73301 5.18696,5.27672 8.68437,12.56944 15.34862,15.78117 9.01896,4.34625 20.91507,-1.74666 24.01251,-11.2676 3.09749,-9.52095 -1.79153,-20.53962 -10.15757,-26.04078 -7.77838,-5.11348 -17.60538,-5.90928 -26.90188,-5.45628 -27.81599,1.36304 -55.02394,12.91632 -75.3187,31.98676 60.03541,-19.1194 117.03865,-46.523238 175.48653,-70.046041 58.44788,-23.522807 119.37698,-43.37681 182.31808,-46.229421"
   id="path1-1"
   style="stroke:#00ff00;stroke-opacity:1" /><path
   class="st0"
   d="m 917.87289,110.91719 c -10.74524,11.88792 -20.05396,25.07359 -27.66498,39.1734 -1.6079,2.97912 -2.96692,7.12132 -0.4285,9.3577 2.71793,2.39554 6.90499,0.0612 9.59032,-2.36289 8.60271,-7.76204 16.0301,-16.82183 21.95571,-26.77944 3.45656,-5.80725 6.32143,-13.46318 2.38733,-18.95617 -3.79121,-5.29306 -12.18172,-5.17878 -17.56045,-1.51406 -5.37877,3.66473 -8.47215,9.76987 -11.34516,15.61385 15.29554,-5.87253 29.73002,-13.98554 42.6953,-24.00436 -4.64827,21.16807 -9.30057,42.33616 -13.94885,63.50017 10.09639,-20.45799 22.16794,-39.93655 35.99435,-58.08062 -5.16656,15.84647 -10.33307,31.69296 -15.49963,47.53942 8.41095,-17.17687 20.65388,-32.46425 35.57808,-44.42562 -3.55052,17.80942 -7.10093,35.61885 -10.65137,53.42828 8.8802,-4.67681 18.02975,-9.58216 24.22881,-17.47478 6.19902,-7.89264 8.63955,-19.66629 3.01178,-27.97925 -5.62774,-8.31298 -20.53145,-9.08428 -24.85732,-0.0286 43.05439,-16.65042 86.11289,-33.300853 129.16739,-49.951277"
   id="path2-7"
   style="stroke:#00ff00;stroke-opacity:1" /><path
   class="st0"
   d="m 1022.8604,85.202886 c -12.2838,37.173724 -26.82023,73.604694 -43.49928,109.023584 11.21859,-31.97453 31.43578,-60.74141 57.72148,-82.12987 -3.7749,11.45941 -7.5539,22.9229 -11.3289,34.38231 -1.0609,3.22399 -1.8854,7.36619 0.7428,9.51686 3.0403,2.48533 7.4927,-0.14283 10.3616,-2.81996 6.3338,-5.90926 12.292,-12.8143 14.3202,-21.23745 2.0283,-8.42316 -1.0366,-18.59298 -8.8557,-22.33116 -7.8192,-3.73411 -19.1848,2.59959 -18.1237,11.19822 10.9371,-3.18317 21.8782,-6.36633 32.8152,-9.55359 2.2812,-0.6652 4.9381,-1.27326 6.8806,0.0979 2.2404,1.58341 2.2486,4.84004 2.0282,7.5743 -0.9304,11.55736 -1.8609,23.11471 -2.7913,34.67207 10.786,-7.75796 18.7112,-19.40509 21.9719,-32.28469 0.8407,-3.32192 1.3222,-7.06828 -0.457,-9.99843 -2.9343,-4.8278 -10.5902,-4.49316 -14.8548,-0.78761 -4.2646,3.70145 -6.0032,9.45564 -7.5458,14.89151 14.3162,0.44482 27.0162,-8.98632 36.9982,-19.26226 9.9822,-10.275927 18.9073,-22.106709 31.5053,-28.930119 -9.2067,29.909549 -18.4093,59.819109 -27.616,89.728669 -1.0407,3.37498 -2.0609,7.11315 -0.6122,10.33305 1.4488,3.21991 6.6031,4.69314 8.468,1.69362"
   id="path3-1"
   style="stroke:#00ff00;stroke-opacity:1" /><path
   class="st0"
   d="m 1145.1919,104.73041 c -13.2345,16.11583 -21.6087,36.17388 -23.7552,56.91754 14.1692,-7.69675 25.2897,-20.84569 30.5298,-36.09634 1.2854,-3.73818 2.216,-7.88446 0.8283,-11.58592 -2.6974,-7.19071 -13.0223,-8.65169 -19.6376,-4.75435 -6.6154,3.89734 -10.3453,11.17375 -13.7325,18.06653 18.4583,-11.07172 36.9166,-22.14344 55.3749,-33.211076 -7.3989,24.257386 -16.4954,47.996496 -27.2039,70.984696 11.8022,-22.38829 27.7141,-42.60551 46.6987,-59.34164 -5.6194,18.3318 -11.2391,36.6636 -16.8626,54.99946 13.7733,-15.29553 27.5426,-30.59515 41.3159,-45.89069 -4.1788,14.20591 -8.3538,28.41183 -12.5327,42.62183 -1.2038,4.08915 -2.0772,9.30873 1.2855,11.92872 3.9831,3.10563 9.6271,-0.53053 13.0674,-4.22789 9.6351,-10.36164 17.2503,-22.59236 22.2943,-35.80659 3.0568,-8.0069 4.2892,-18.90314 -2.9628,-23.46976 -4.3625,-2.74651 -10.0433,-1.84052 -14.9689,-0.33056 -14.4264,4.42788 -27.4406,13.34891 -36.7697,25.20825 1.2078,0.35097 2.42,0.69785 3.6278,1.04883"
   id="path4"
   style="stroke:#00ff00;stroke-opacity:1" /><path
   class="st0"
   d="m 1268.45,93.042464 c -8.5619,24.363496 -17.1279,48.726986 -25.6897,73.094566 13.3814,-25.55923 30.995,-48.89839 51.9061,-68.780959 -8.007,19.858079 -16.018,39.716179 -24.0248,59.574249 10.0147,-23.49016 23.5798,-45.4622 40.0998,-64.936663 -8.4844,22.135263 -15.1078,44.984713 -19.7806,68.225943 12.5857,-17.4095 25.1716,-34.81898 37.7572,-52.22848 -8.0516,17.50336 -9.329,38.01849 -3.5136,56.38292 17.8053,-14.22224 29.9911,-35.30462 33.4314,-57.83167 0.7264,-4.76252 0.8447,-10.263677 -2.567,-13.663137 -4.3951,-4.382984 -11.8878,-2.664889 -17.3115,0.359126 -10.7127,5.970486 -19.1112,15.981151 -23.1269,27.567061 39.8834,-16.88713 79.7669,-33.778332 119.6503,-50.665453"
   id="path5"
   style="stroke:#00ff00;stroke-opacity:1" /></svg>
