<?xml version="1.0" encoding="UTF-8" standalone="no"?>
<!-- Generator: Adobe Adobe Illustrator 24.2.0, SVG Export Plug-In . SVG Version: 6.00 Build 0)  -->

<svg
   version="1.1"
   id="Layer_2"
   x="0px"
   y="0px"
   width="1500"
   height="250"
   viewBox="0 0 1500 250"
   xml:space="preserve"
   sodipodi:docname="09_binary.svg"
   inkscape:version="1.3.2 (091e20e, 2023-11-25)"
   xmlns:inkscape="http://www.inkscape.org/namespaces/inkscape"
   xmlns:sodipodi="http://sodipodi.sourceforge.net/DTD/sodipodi-0.dtd"
   xmlns="http://www.w3.org/2000/svg"
   xmlns:svg="http://www.w3.org/2000/svg"><defs
   id="defs4" /><sodipodi:namedview
   id="namedview4"
   pagecolor="#505050"
   bordercolor="#eeeeee"
   borderopacity="1"
   inkscape:showpageshadow="0"
   inkscape:pageopacity="0"
   inkscape:pagecheckerboard="0"
   inkscape:deskcolor="#505050"
   inkscape:zoom="0.48254472"
   inkscape:cx="527.41225"
   inkscape:cy="47.663976"
   inkscape:window-width="1680"
   inkscape:window-height="997"
   inkscape:window-x="0"
   inkscape:window-y="25"
   inkscape:window-maximized="0"
   inkscape:current-layer="Layer_2"
   showguides="true"><sodipodi:guide
     position="600.64101,308.55832"
     orientation="1,0"
     id="guide1"
     inkscape:locked="false" /><sodipodi:guide
     position="298.64741,99.421473"
     orientation="0,-1"
     id="guide2"
     inkscape:locked="false" /></sodipodi:namedview>
<style
   type="text/css"
   id="style1">
	.st0{fill:none;stroke:#000000;stroke-miterlimit:10;}
	.st1{fill:none;stroke:#000000;stroke-width:1.0209;stroke-miterlimit:10;}
</style>
<path
   class="st1"
   d="m 64.234316,110.45106 c 2.149394,-5.6744 4.298787,-11.354175 6.448181,-17.028565 -21.327355,12.939345 -36.287132,35.878745 -39.516595,60.612885 -0.241806,1.85385 -0.322409,4.00862 1.037082,5.29825 2.396574,2.27298 6.195627,-0.33853 8.291285,-2.89631 9.774365,-11.90763 17.393964,-25.57777 22.380557,-40.15066 2.439561,-7.13599 3.299318,-16.90498 -3.363801,-20.440728 -6.496541,-3.449777 -13.954935,2.321341 -18.780323,7.872158 -2.315971,2.65987 -4.712545,6.00755 -3.772185,9.40897 0.902745,3.27244 4.723291,5.0242 8.108586,4.73403 3.385294,-0.29016 6.421312,-2.10641 9.322993,-3.87428 C 66.98554,106.3081 79.57561,98.624023 92.171054,90.945312 86.211862,115.72245 80.247296,140.49958 74.288103,165.2767 90.2366,144.2019 106.1851,123.13248 122.13896,102.05768 c -3.90114,19.75829 -11.35416,38.81266 -21.9023,55.97019 10.16662,-15.41114 21.9023,-29.78521 34.96524,-42.82665 2.06879,-2.06342 5.06183,-4.25043 7.63035,-2.8587 2.676,1.45084 2.32672,5.33587 1.59592,8.29128 -2.31059,9.36599 -4.62119,18.7266 -6.93178,28.09258 -0.68781,2.77809 -1.37562,5.66365 -0.82752,8.47398 0.54809,2.81033 2.71361,5.51857 5.56693,5.72276 2.97691,0.21494 5.42721,-2.19776 7.36167,-4.47074 9.48957,-11.18222 17.28649,-23.80453 23.02537,-37.30271 2.86944,-6.74372 5.13168,-14.85768 1.26277,-21.08018 -4.09996,-6.593259 -13.67551,-7.872157 -20.82762,-4.852253 -7.1521,3.019895 -12.402,9.210153 -17.23276,15.287553 35.45424,-23.476749 73.46088,-43.089959 113.13332,-58.388265"
   id="path1"
   style="stroke:#00ff00;stroke-opacity:1" />
<path
   class="st1"
   d="m 189.02808,96.109236 c -8.24829,23.944234 -16.49121,47.883104 -24.73951,71.827344 6.99628,-24.12694 21.4402,-46.04 40.85459,-61.9885 -4.36326,17.66264 -8.72654,35.3199 -13.09518,52.98254 10.88668,-17.92057 24.22367,-34.35805 39.52197,-48.69987 -1.75176,12.82112 -3.49814,25.64763 -5.24989,38.46876 -0.33315,2.45031 -0.40301,5.4917 1.71951,6.75984 2.55778,1.53144 5.58306,-0.9726 7.50676,-3.24558 4.0516,-4.79852 8.15157,-9.6669 10.82757,-15.34667 2.67599,-5.67977 3.8098,-12.36438 1.70339,-18.28059 -2.11178,-5.9162 -7.99574,-10.67174 -14.26122,-10.1935 -6.26011,0.47824 -11.62822,7.28645 -9.57555,13.21877 22.28921,-15.19083 44.58379,-30.376295 66.873,-45.567139 -9.04895,24.589069 -18.0979,49.183499 -27.15222,73.772559 -0.88662,2.41269 -1.75713,5.18003 -0.55883,7.44764 1.20365,2.27298 5.46483,2.45031 5.81947,-0.0967"
   id="path2"
   style="stroke:#00ff00;stroke-opacity:1" />
<path
   class="st1"
   d="m 296.56223,114.64237 c -4.72329,12.19781 -9.44659,24.40099 -14.16451,36.59879 -0.96185,2.48255 -1.86459,5.47559 -0.30628,7.63035 1.4992,2.0688 4.69105,2.21388 6.94254,1.01022 2.25148,-1.20366 3.7883,-3.38529 5.23377,-5.48633 5.20153,-7.55512 10.40306,-15.10486 15.59922,-22.65998 3.98175,-5.78724 8.08172,-13.30474 4.55134,-19.37678 -3.37992,-5.81948 -12.23005,-6.16876 -17.86683,-2.48791 -5.63678,3.68083 -8.82326,10.04303 -11.75181,16.09894 15.38966,-10.0108 30.77394,-20.02696 46.16359,-30.037766 -1.18216,22.482656 -5.29288,44.809476 -12.18705,66.238926 9.51643,-20.84374 19.03287,-41.68748 28.54931,-62.531223 -2.21388,19.371403 -4.43312,38.737443 -6.647,58.108853 14.52453,-24.90073 29.04367,-49.80145 43.5682,-74.702162 -4.8845,30.548242 -9.76361,61.096502 -14.64811,91.644742"
   id="path3"
   style="stroke:#00ff00;stroke-opacity:1" />
<path
   class="st1"
   d="M 413.69878,95.518146 C 399.08291,119.87078 386.0952,145.196 374.85925,171.27889 c 12.17094,-24.33113 30.4784,-45.55639 52.75685,-61.16636 -1.65503,12.91247 -3.31007,25.83033 -4.97047,38.74281 9.87647,-7.65184 18.28597,-17.19515 24.63742,-27.95823 2.47181,-4.18595 4.69105,-9.12418 3.26708,-13.77224 -2.3912,-7.802294 -13.87433,-9.145664 -20.46222,-4.33639 -6.58789,4.80926 -9.41434,13.12204 -11.87003,20.90284 13.81522,-6.00755 27.63583,-12.02048 41.45105,-18.02804 -0.80065,10.60189 -1.6013,21.20915 -2.40732,31.81102 -0.21494,2.86944 -0.31704,6.09353 1.62817,8.21069 2.07954,2.26223 5.80873,2.25686 8.52772,0.82751 2.71897,-1.42935 4.66418,-3.95488 6.5234,-6.40519 4.75016,-6.26011 9.66152,-12.89636 10.74159,-20.68254 1.08008,-7.78617 -3.21334,-16.91572 -10.95115,-18.29671 -7.66797,-1.370235 -14.42244,5.01884 -19.02214,11.30581 -0.81677,1.11231 -1.64965,2.46106 -1.25739,3.78293 0.81677,2.76735 4.99196,1.6819 7.3563,0.0269 21.69275,-15.2177 41.67136,-32.880342 59.4361,-52.54729 -9.72064,38.66221 -19.44126,77.32979 -29.1619,115.99201 0.98335,-1.16068 1.97207,-2.31598 2.95542,-3.47665"
   id="path4"
   style="stroke:#00ff00;stroke-opacity:1" />
<style
   type="text/css"
   id="style1-6">
	.st0{fill:none;stroke:#000000;stroke-width:1.0061;stroke-miterlimit:10;}
</style><path
   class="st0"
   d="m 671.35507,103.01652 c -12.65344,10.55374 -20.97597,26.15954 -22.68968,42.55009 -0.3648,3.47832 0.30541,8.02984 3.71586,8.79337 2.80389,0.6278 5.24291,-1.90036 6.91001,-4.24185 8.00435,-11.23245 13.56968,-24.1871 16.21661,-37.72287 1.49738,-7.67353 1.01381,-17.518883 -6.05316,-20.861459 -4.41997,-2.091242 -9.87502,-0.530241 -13.66303,2.557835 -3.78795,3.09232 -6.26522,7.461434 -8.65763,11.728754 -1.68824,3.01172 -3.2959,7.04995 -0.98407,9.61628 2.02757,2.24819 5.63315,1.67129 8.5643,0.91201 10.96519,-2.84629 21.93466,-5.69259 32.89986,-8.53463 -2.25666,15.28342 -2.63422,30.84681 -1.1156,46.22355 11.68209,-2.66814 21.46804,-12.35654 24.25494,-24.01316 2.61724,-10.94825 -1.59494,-23.87319 -11.50815,-29.20521 -9.91326,-5.332021 -24.63249,-0.0891 -27.04189,10.90582 -0.60656,2.76569 -0.21634,6.14646 2.16759,7.67352 2.74877,1.76462 6.3331,0.12726 9.16246,-1.5101 28.47133,-16.47962 56.95117,-32.950768 85.42679,-49.426152 -17.2559,35.292282 -34.51601,70.580322 -51.77191,105.872572 11.9239,-24.72155 29.07794,-46.90224 50.00304,-64.65865 -5.43807,15.47005 -8.45825,31.78848 -8.91212,48.18327 17.95153,-4.823 33.31977,-18.42663 40.28918,-35.6613 2.70627,-6.69366 3.66918,-15.54219 -1.94282,-20.07674 -4.74237,-3.830389 -11.75839,-2.528141 -17.4128,-0.25026 -13.63759,5.48473 -25.37058,15.59732 -32.80655,28.27623 44.53104,-26.96125 92.09504,-48.908645 141.50423,-65.294947"
   id="path1-2"
   style="stroke:#00ff00;stroke-opacity:1" /><path
   class="st0"
   d="m 836.33798,106.83844 c -10.9864,17.34495 -21.97286,34.69416 -32.95926,52.03912 7.81777,2.85052 16.81473,-0.45388 22.93571,-6.09555 6.11677,-5.64168 9.95145,-13.27278 13.6546,-20.72573 3.1941,-6.42642 6.28642,-14.51988 2.04032,-20.30578 -3.77951,-5.15386 -11.83054,-5.3405 -17.36617,-2.15062 -5.53563,3.18987 -9.1497,8.81458 -12.54743,14.22296 16.11905,-5.09872 32.23814,-10.19743 48.35719,-15.29615 -11.2579,17.63341 -19.20288,37.37926 -23.29629,57.8929 14.50716,-7.87713 26.39283,-20.49242 33.38343,-35.44922 2.5451,-5.44655 4.21219,-12.56015 0.0976,-16.94623 -3.85161,-4.10188 -10.97368,-3.21109 -15.30464,0.38177 -4.3309,3.58861 -6.55366,9.05636 -8.61946,14.28658 17.40436,-3.28744 34.45662,-8.45403 50.76238,-15.37674 -4.17401,13.63757 -8.34375,27.27091 -12.51774,40.90849 10.47314,-5.65864 19.20287,-14.49018 24.74277,-25.02273 2.93536,-5.57804 4.90355,-12.6153 1.59495,-17.98124 -3.61407,-5.85801 -12.18691,-6.84636 -18.46063,-4.02128 -6.27366,2.82507 -10.77855,8.43281 -15.03736,13.83694 19.97915,-2.40089 39.81832,-5.99374 59.37329,-10.74886 -2.57057,11.87296 -5.13687,23.74592 -7.70743,35.61888 -0.50905,2.35 -0.89505,5.14963 0.81017,6.84636 2.51118,2.49845 6.7064,0.23755 9.37025,-2.09548 8.33953,-7.31719 16.07665,-15.32583 23.09694,-23.91984 6.89726,-8.4413 13.20916,-20.65362 6.89304,-29.540306 -5.65018,-7.953499 -17.48072,-7.427505 -27.04612,-5.488973 -24.61973,4.988423 -48.45898,13.794529 -70.41062,26.002599 25.78627,-0.92048 50.78357,-8.58127 75.66631,-15.40219 97.07492,-26.604944 197.42882,-41.218153 298.05852,-43.394227 -1.5865,2.28212 -3.1772,4.568485 -4.7637,6.8506"
   id="path2-2"
   style="stroke:#00ff00;stroke-opacity:1" /><path
   class="st0"
   d="m 988.96426,103.04621 c -7.16443,19.6695 -14.33319,39.34324 -21.49767,59.01274 19.63983,-11.98749 35.48741,-30.07902 44.78981,-51.12289 2.8972,-6.56215 3.6352,-16.670505 -3.2832,-18.562381 -3.0117,-0.822915 -6.1719,0.551449 -8.8485,2.159105 -10.40109,6.239776 -18.2146,16.662036 -21.28994,28.395006 18.82121,-11.82629 37.64234,-23.652603 56.45924,-35.474662 -2.7064,24.751252 -9.9472,49.001972 -21.2645,71.182642 12.5855,-24.4119 28.4756,-47.11433 47.0974,-67.301344 -6.9821,20.293054 -13.9642,40.581874 -20.9463,60.874924 15.453,-21.29837 34.2997,-40.13223 55.6107,-55.572598 -3.3722,13.815748 -6.7446,27.631478 -10.1168,41.442968 -0.8484,3.46984 -1.6373,7.36388 0.1993,10.43074 3.7414,6.24825 13.4044,3.03293 19.2157,-1.3574 12.3311,-9.32785 22.8509,-21.04386 30.8002,-34.30816 3.3086,-5.5229 6.227,-12.30139 3.6479,-18.197579 -3.5164,-8.038326 -14.7236,-8.996988 -23.135,-6.502771 -14.8211,4.39032 -27.3685,15.86032 -33.0696,30.22749 33.4216,-10.74462 65.2228,-25.900797 96.9095,-41.010298 -7.2706,29.977218 -20.4755,58.507978 -38.6263,83.445868 16.8359,-24.49674 37.5234,-46.34231 61.0657,-64.493241 -5.455,16.127561 -10.9058,32.255111 -16.3608,48.382651 -0.8272,2.44756 -1.5483,5.46776 0.2163,7.35115 2.5622,2.74024 7.0542,0.1824 9.7266,-2.45179 13.0141,-12.84012 23.975,-27.75025 32.3527,-43.99658 2.07,-4.01703 3.9321,-9.073339 1.3744,-12.797691 -2.9906,-4.352148 -9.6418,-3.541951 -14.52,-1.522829 -14.6895,6.078586 -26.38,18.9993 -30.9612,34.22333 19.4912,-8.5219 38.9784,-17.04804 58.4697,-25.569937 2.4264,-1.060464 5.4932,-2.040326 7.4953,-0.309654 2.0489,1.773111 1.4338,5.035091 0.6491,7.626861 -5.1878,17.09471 -10.3714,34.18515 -15.5591,51.27984 18.8168,-11.5336 33.4343,-29.76936 40.5945,-50.6478 2.2058,-6.43065 2.9014,-15.17313 -3.0541,-18.456324 -4.6702,-2.574809 -10.4265,0.06359 -14.9398,2.905664 -15.2919,9.62055 -28.8446,21.99406 -39.8142,36.34425 27.8012,-11.09669 55.6024,-22.19339 83.3994,-33.290102 -3.4233,15.665192 -6.8422,31.330382 -10.2654,46.995572 -0.4029,1.84944 -0.789,3.87281 0.05,5.56954 2.3372,4.7212 9.5484,1.47617 13.1116,-2.40513 8.6449,-9.41692 15.8051,-20.18701 21.1456,-31.79698 2.4348,-5.29807 4.454,-11.66086 1.5908,-16.742618 -4.0043,-7.113593 -14.2697,-6.736073 -22.2275,-4.916316 -21.4341,4.895106 -42.0538,13.336414 -60.7687,24.870024 57.2735,-9.15817 114.6998,-17.357692 172.2448,-24.590057 13.9176,-1.747648 30.9741,-2.074269 38.5543,9.726587"
   id="path3-5"
   style="stroke:#00ff00;stroke-opacity:1" /></svg>
