<?xml version="1.0" encoding="UTF-8" standalone="no"?>
<!-- Generator: Adobe Adobe Illustrator 24.2.0, SVG Export Plug-In . SVG Version: 6.00 Build 0)  -->

<svg
   version="1.1"
   id="Layer_2"
   x="0px"
   y="0px"
   width="1500"
   height="250"
   viewBox="0 0 1500 250"
   xml:space="preserve"
   sodipodi:docname="10_binary.svg"
   inkscape:version="1.3.2 (091e20e, 2023-11-25)"
   xmlns:inkscape="http://www.inkscape.org/namespaces/inkscape"
   xmlns:sodipodi="http://sodipodi.sourceforge.net/DTD/sodipodi-0.dtd"
   xmlns="http://www.w3.org/2000/svg"
   xmlns:svg="http://www.w3.org/2000/svg"><defs
   id="defs3" /><sodipodi:namedview
   id="namedview3"
   pagecolor="#505050"
   bordercolor="#eeeeee"
   borderopacity="1"
   inkscape:showpageshadow="0"
   inkscape:pageopacity="0"
   inkscape:pagecheckerboard="0"
   inkscape:deskcolor="#505050"
   inkscape:zoom="0.38272987"
   inkscape:cx="570.89874"
   inkscape:cy="-5.2256177"
   inkscape:window-width="1680"
   inkscape:window-height="997"
   inkscape:window-x="0"
   inkscape:window-y="25"
   inkscape:window-maximized="0"
   inkscape:current-layer="Layer_2"
   showguides="true"><sodipodi:guide
     position="599.71396,499.40028"
     orientation="1,0"
     id="guide1"
     inkscape:locked="false" /><sodipodi:guide
     position="523.27567,98.775229"
     orientation="0,-1"
     id="guide2"
     inkscape:locked="false" /></sodipodi:namedview>
<style
   type="text/css"
   id="style1">
	.st0{fill:none;stroke:#000000;stroke-miterlimit:10;}
	.st1{fill:none;stroke:#000000;stroke-width:1.0209;stroke-miterlimit:10;}
</style>
<path
   class="st1"
   d="m 72.528049,89.176894 c -0.205313,-2.318313 -3.148121,-3.550187 -5.372338,-2.87009 -2.224217,0.680098 -3.815387,2.60062 -5.226909,4.44843 -14.594281,19.111146 -25.001047,41.400356 -30.279283,64.857296 -0.624492,2.77171 -1.005175,6.12943 1.099276,8.03711 2.977028,2.699 7.630773,-0.009 10.565028,-2.76316 16.797111,-15.76198 30.655689,-34.64644 40.664663,-55.39154 2.070232,-4.29017 3.674234,-10.167226 0.0085,-13.212696 -2.707556,-2.2456 -6.758197,-1.45857 -10.060302,-0.23525 -11.001316,4.06347 -20.659548,11.672856 -27.191044,21.412356 10.633465,-3.11818 21.266929,-6.23636 31.900394,-9.35455 4.516871,-1.32596 9.85499,-2.51079 13.554889,0.40635 4.589578,3.61863 3.409034,10.78745 1.518457,16.32234 -5.48355,16.03147 -13.276863,31.27162 -23.063414,45.10454 13.144262,-23.29012 32.392284,-43.10276 55.297434,-56.91 -7.54951,15.21877 -15.09473,30.44181 -22.64424,45.66059 10.65485,-13.2127 23.24307,-24.8599 37.24279,-34.45825 -2.13011,8.73861 -4.26022,17.47721 -6.38606,26.21582 -0.76992,3.1524 -1.12494,7.30142 1.73233,8.82842 2.69899,1.44147 5.84285,-0.80414 7.99007,-2.98131 5.6033,-5.67602 10.62063,-11.92948 14.95358,-18.62781 3.61862,-5.59475 6.74108,-13.02021 3.0925,-18.59359 -3.33632,-5.09858 -10.65057,-5.7188 -16.58324,-4.33721 -5.93267,1.38158 -11.64719,4.21317 -17.73812,4.08913 6.45022,-7.68638 15.4968,-12.66948 24.48349,-17.130736 33.07665,-16.424985 68.45026,-28.213332 104.76914,-34.9202 3.5117,-0.645877 7.19875,-1.240428 10.5907,-0.132597 3.39193,1.107831 6.3219,4.486928 5.66747,7.994346"
   id="path1"
   style="stroke:#00ff00;stroke-opacity:1" />
<path
   class="st1"
   d="m 186.14702,110.50371 c -9.79084,11.99366 -16.88695,26.17304 -20.60823,41.2036 12.4214,-2.6605 23.35855,-11.49748 28.56408,-23.08052 2.29264,-5.10286 2.98558,-12.19469 -1.6639,-15.30859 -2.40386,-1.60828 -5.53059,-1.5869 -8.39641,-1.19338 -9.8721,1.35163 -19.16676,6.52294 -25.52288,14.19221 13.9313,-5.36806 27.85831,-10.73612 41.7896,-16.09991 2.80593,-1.08216 6.00966,-2.15577 8.71721,-0.85119 4.48267,2.16006 4.05065,8.59318 2.92143,13.4394 -1.86492,8.00717 -3.73411,16.01008 -5.59904,24.01727 -0.44911,1.9248 -0.69293,4.39282 0.97951,5.44505 1.70667,1.07361 3.86672,-0.29514 5.3424,-1.67245 7.78048,-7.26291 13.58911,-16.62173 16.64741,-26.81463 1.67671,-5.58193 1.71521,-13.1186 -3.56303,-15.58235 -2.84443,-1.33025 -6.19359,-0.56033 -9.18772,0.39352 -9.5513,3.04546 -18.5551,7.7762 -26.481,13.91417 11.55309,-6.36039 23.77344,-11.51031 36.39159,-15.3428 3.5117,-1.06506 7.50245,-1.98041 10.68908,-0.15827 5.08575,2.90859 4.58102,10.28273 3.3962,16.02292 -1.60828,7.80186 -3.21656,15.59945 -4.82483,23.40132 -0.42347,2.06168 -0.7571,4.48264 0.68009,6.01822 2.18145,2.33543 6.05243,0.51327 8.56324,-1.47141 12.37861,-9.78655 22.97358,-21.81871 31.11763,-35.33082 2.31832,-3.84533 4.48266,-8.60173 2.54501,-12.65237 -2.75032,-5.757286 -11.05262,-5.346666 -17.13501,-3.417586 -13.36241,4.247386 -25.74103,11.557366 -35.90826,21.211316 25.5571,-15.02201 51.52054,-30.219396 80.19582,-37.738958 -17.6868,31.344338 -35.36931,62.688678 -53.0561,94.033018 2.22849,0.004 4.45698,0.009 6.68976,0.0128"
   id="path2"
   style="stroke:#00ff00;stroke-opacity:1" />
<path
   class="st1"
   d="m 306.06649,105.43079 c -5.78723,11.63864 -11.57876,23.27727 -17.366,34.92019 -1.36019,2.73321 -2.36964,6.76246 0.29943,8.24243 2.15577,1.19339 4.72645,-0.55178 6.48871,-2.27555 5.27396,-5.16701 9.778,-11.1168 13.32391,-17.59269 3.17379,-5.79579 5.09431,-14.10238 -0.12404,-18.15303 -3.61008,-2.80165 -9.14923,-1.78792 -12.57966,1.23188 -3.43043,3.0198 -5.14135,7.53239 -6.24063,11.96799 18.14447,-4.5297 33.9364,-15.42409 49.27923,-26.108876 -4.72647,23.315776 -11.09971,46.302196 -19.05556,68.719736 9.77372,-22.1224 22.78539,-42.81189 38.49607,-61.19589 -1.38158,17.81939 -7.99008,34.76193 -14.52586,51.40078 15.41554,-20.71515 30.83106,-41.43031 46.25087,-62.145456 -3.06685,15.847536 -6.13797,31.699356 -9.20483,47.546896 -0.91964,4.74785 -1.38159,10.68479 2.62628,13.38807 4.48693,3.02836 10.42388,-0.73998 14.05106,-4.76067 5.17131,-5.73165 9.33315,-12.37006 12.24603,-19.52178 2.08305,-5.1157 3.50314,-10.9671 1.42007,-16.07852 -2.49796,-6.12515 -9.53846,-9.42298 -16.1555,-9.43153 -6.61706,-0.009 -12.92185,2.63484 -18.92723,5.41511 -6.00539,2.77599 -12.07064,5.77868 -18.64065,6.56571 25.49294,-11.83539 53.45391,-18.315556 81.55175,-18.897276 -0.15826,2.091616 -1.80075,3.982196 -3.8496,4.431316"
   id="path3"
   style="stroke:#00ff00;stroke-opacity:1" />
<style
   type="text/css"
   id="style1-9">
	.st0{fill:none;stroke:#000000;stroke-width:1.0061;stroke-miterlimit:10;}
</style><path
   class="st0"
   d="m 608.23002,140.33572 c 41.07738,-19.12948 79.87387,-43.147568 115.31076,-71.385976 -2.25904,13.659768 -9.17065,26.037448 -15.96967,38.099156 -16.02417,28.4418 -32.05196,56.88359 -48.07974,85.32539 29.01203,-29.73113 58.02402,-59.46591 87.03968,-89.19706 -7.84866,18.78808 -15.69727,37.57616 -23.54593,56.36424 20.38249,-11.06292 35.97083,-30.63913 42.19236,-52.98289 -12.30504,5.13922 -23.33163,13.30021 -31.84131,23.5641 9.64285,-6.12348 20.56046,-10.23121 31.85219,-11.97454 0.67192,11.06654 1.34745,22.12946 2.01939,33.19602 9.60648,-4.67432 16.8595,-13.93216 19.09316,-24.37765 1.11137,-5.19006 0.97696,-10.84137 -1.54723,-15.50842 -2.52784,-4.66706 -7.80506,-8.04477 -13.05684,-7.2748 -5.25181,0.76997 -9.55567,6.46487 -7.94671,11.52418 18.07986,-11.19731 36.15606,-22.398238 54.23588,-33.595538 1.85232,-1.147697 4.12228,-2.32808 6.09078,-1.39467 2.72396,1.28934 2.40436,5.21911 1.62354,8.12831 -9.95887,37.034988 -25.22029,72.642618 -45.17059,105.395548"
   id="path1-5"
   style="stroke:#00ff00;stroke-opacity:1" /><path
   class="st0"
   d="m 844.93149,101.04528 c 4.16583,1.61622 6.71545,6.07626 7.18035,10.51813 0.46124,4.44188 -0.82447,8.88012 -2.42616,13.0496 -3.70821,9.67188 -9.18883,18.65732 -16.08952,26.38248 -1.58717,1.77966 -3.86075,3.65011 -6.09078,2.8075 -2.88011,-1.08958 -2.5351,-5.23727 -1.61258,-8.17552 4.32198,-13.77598 9.5157,-27.27595 8.96004,-44.08461 -3.97341,4.91766 -7.94672,9.83532 -11.92013,14.75298 16.30745,-8.33533 32.61496,-16.670648 48.9188,-25.009608 1.40555,-0.71912 3.14888,-1.42735 4.47452,-0.57021 1.69249,1.10048 1.20946,3.661 0.52663,5.56051 -7.44189,20.705748 -14.88372,41.411488 -22.32921,62.117248 10.89222,-22.06047 24.0217,-43.01319 39.12697,-62.433228 -7.76871,21.522928 -15.54108,43.042248 -23.30985,64.565178 14.15011,-23.76021 31.17301,-45.80252 50.58221,-65.502218 -1.569,24.591928 -19.0242,46.416318 -18.8571,71.055468 0,0 39.9297,-54.39572 33.0871,-52.88119 -1.8451,7.41281 -8.8039,12.18156 -13.6416,18.09437 -4.8378,5.91281 -6.8681,16.24208 -0.287,20.12464 5.6332,3.32686 12.5811,-0.90436 17.7131,-4.95761 5.6258,-4.44188 11.4515,-9.1271 14.4624,-15.63191 3.0108,-6.50483 2.2155,-15.37768 -3.7119,-19.41278 -4.5907,-3.12711 -10.9503,-2.48061 -15.8462,0.14528 -4.8958,2.6259 -8.6513,6.9116 -12.2941,11.1065 14.8402,-7.39465 29.6803,-14.79293 44.5204,-22.18758 -6.7264,14.01932 -12.6138,28.43817 -17.6222,43.15847 -1.3329,3.9225 -2.4334,8.76389 0.385,11.80019 4.3946,4.73244 12.0399,-0.17433 16.3982,-4.93943 6.2724,-6.8535 12.7663,-14.11014 14.9818,-23.1319 2.2155,-9.02177 -1.5399,-20.23723 -10.3837,-23.08105 -9.3269,-2.99999 -18.8898,4.3983 -24.1634,12.65735 20.408,-8.96365 40.8159,-17.930938 61.22372,-26.894588 -3.5519,31.114918 -15.60642,61.220138 -34.51062,86.189808 10.7359,-26.6222 29.31342,-50.03012 52.80122,-66.5337 -1.954,15.88979 -3.9079,31.7832 -5.8583,47.67298 14.6731,-7.6053 26.052,-21.32681 30.8134,-37.15122 1.7761,-5.89829 2.0085,-13.60891 -3.2506,-16.81593 -3.1525,-1.9213 -7.1766,-1.42372 -10.7832,-0.62469 -13.4199,2.97456 -26.1029,9.31595 -36.42852,18.38856 C 1124.1485,93.890342 1252.2364,83.121612 1379.5255,89.241452"
   id="path2-6"
   style="stroke:#00ff00;stroke-opacity:1" /></svg>
